<svg width="250" height="231" viewBox="0 0 250 231" fill="none" xmlns="http://www.w3.org/2000/svg">
<path d="M238.439 38.3412C238.44 38.9468 238.281 39.5419 237.978 40.0661C237.675 40.5902 237.238 41.0248 236.712 41.3256L229.236 45.6203C228.806 45.868 228.328 46.0199 227.834 46.0657C227.34 46.1115 226.841 46.05 226.373 45.8854C226.283 46.3548 226.095 46.7999 225.821 47.1915C225.546 47.5831 225.193 47.9124 224.782 48.1577L224.51 48.3168L217.276 52.4979L217.072 52.6115C216.647 52.8171 216.185 52.9345 215.714 52.9567C215.243 52.9788 214.772 52.9052 214.33 52.7403C214.25 53.2438 214.058 53.7229 213.768 54.1424C213.478 54.5619 213.098 54.911 212.656 55.1641L205.839 59.1029C207.1 61.2071 207.806 63.597 207.891 66.0487C207.891 68.5255 206.899 70.1616 205.369 70.7676C205.118 70.9652 204.84 71.1259 204.543 71.2448C204.293 71.4471 204.012 71.6082 203.71 71.722C203.158 72.0442 202.605 72.3649 202.051 72.6839C201.797 72.8805 201.517 73.0411 201.218 73.1611C200.968 73.3592 200.689 73.5199 200.393 73.6383C200.138 73.8349 199.858 73.9955 199.559 74.1155C199.311 74.3171 199.032 74.4782 198.734 74.5927C197.439 75.6152 195.537 75.6531 193.386 74.4109C189.501 72.1386 186.342 66.7076 186.342 62.2008C186.342 59.9285 187.145 58.353 188.425 57.694C188.563 57.6294 188.704 57.5737 188.849 57.5274C188.977 57.4132 189.114 57.3093 189.258 57.2168C189.394 57.1535 189.533 57.0978 189.675 57.0502C189.801 56.9336 189.938 56.8296 190.084 56.7396C190.22 56.6718 190.362 56.616 190.508 56.573C190.636 56.4564 190.772 56.35 190.917 56.2549C191.053 56.194 191.192 56.1409 191.334 56.0958C191.461 55.9792 191.598 55.8728 191.743 55.7777C191.879 55.7123 192.021 55.6591 192.167 55.6186C192.293 55.4997 192.43 55.3932 192.576 55.3005C192.711 55.2371 192.85 55.1815 192.992 55.1338C193.12 55.0196 193.257 54.9158 193.401 54.8233C193.539 54.7587 193.681 54.703 193.826 54.6566C193.953 54.5424 194.09 54.4386 194.235 54.3461C194.37 54.2828 194.509 54.2271 194.651 54.1795C194.779 54.0942 194.914 54.0183 195.053 53.9522C195.191 53.8889 195.332 53.8332 195.477 53.7856C195.603 53.669 195.74 53.565 195.886 53.475C195.695 53.2958 195.492 53.1288 195.28 52.9751L194.659 52.5282L194.045 52.1192C193.826 51.9753 193.606 51.8389 193.379 51.7102C192.653 51.2918 191.893 50.937 191.106 50.6497C190.864 50.5588 190.622 50.4755 190.349 50.4074C189.471 50.133 188.557 49.99 187.637 49.9832H187.205H186.887C186.726 49.9832 186.567 49.9832 186.41 49.9832C185.644 49.9917 184.89 49.7963 184.224 49.4169C183.558 49.0376 183.006 48.4879 182.623 47.8245L182.441 47.5139C182.441 47.5139 184.107 41.7724 184.123 41.7497L189.425 38.5684C190.472 37.8273 191.63 37.2572 192.856 36.8793C193.063 36.8342 193.273 36.8039 193.485 36.7884H193.659C193.929 36.7694 194.2 36.7694 194.469 36.7884H194.757H194.833C195.365 36.8525 195.892 36.9563 196.408 37.099C198.355 37.6701 200.217 38.4979 201.945 39.5607C202.354 39.7955 202.703 40.0379 203.119 40.3181C202.46 39.7198 201.786 39.1593 201.097 38.6215C200.787 38.3715 200.476 38.1291 200.158 37.864C200.115 37.8198 200.067 37.7816 200.014 37.7504C199.741 37.5383 199.461 37.3338 199.173 37.1293C198.666 36.7657 198.151 36.3718 197.62 36.0537L196.924 35.5992C196.568 35.3644 196.166 35.1372 195.84 34.9175C195.515 34.6979 194.939 34.3722 194.485 34.1071C190.266 31.6757 186.44 30.6455 182.979 30.6455H182.259L181.449 30.6986C181.244 30.6986 181.047 30.6985 180.843 30.7667L180.419 30.8273L180.04 30.8879L179.472 30.994L178.813 31.153C178.578 31.2136 178.343 31.2742 178.108 31.35C177.874 31.4257 177.715 31.4711 177.525 31.5317C177.053 31.6954 176.556 31.7798 176.056 31.7817C175.29 31.7887 174.536 31.5926 173.871 31.2133C173.206 30.8341 172.653 30.2854 172.269 29.623L172.185 29.4791L173.48 23.9345C173.48 23.9345 173.48 23.9345 173.571 23.8588C174.17 23.4346 177.124 21.3819 177.359 21.2456C178.749 20.4309 180.209 19.7414 181.722 19.1853C182.343 18.948 182.979 18.7359 183.63 18.5491L184.494 18.3143C184.782 18.2461 185.069 18.1703 185.365 18.1098C185.956 17.981 186.546 17.8749 187.152 17.784L187.91 17.678H188.084L188.993 17.5947C189.001 17.5911 189.01 17.5893 189.02 17.5893C189.029 17.5893 189.038 17.5911 189.046 17.5947L189.887 17.5417C189.965 17.5341 190.044 17.5341 190.122 17.5417C191.148 17.5117 192.174 17.5421 193.197 17.6326C194.529 17.7625 195.848 17.9981 197.143 18.337C192.565 15.7699 187.484 14.2246 182.252 13.8074C180.37 13.6868 178.48 13.7425 176.609 13.9741C176.139 14.0271 175.662 14.0953 175.2 14.1786H175.056C174.768 14.224 174.495 14.2771 174.215 14.3452C173.738 14.4437 173.268 14.5497 172.799 14.6709C172.329 14.7921 171.875 14.9285 171.42 15.0724C171.087 15.1683 170.761 15.2744 170.443 15.3905C170.027 15.5344 169.61 15.6935 169.208 15.8526C168.631 16.0875 168.014 16.2084 167.391 16.2086C166.501 16.2033 165.629 15.9648 164.861 15.5169C164.092 15.0689 163.455 14.4273 163.013 13.656L162.906 13.4742C162.967 13.1863 164.353 7.08131 164.353 7.08131H164.391L164.49 7.00556L164.558 6.95254C165.255 6.43747 167.512 4.77866 167.747 4.68019C169.392 3.72142 171.115 2.903 172.897 2.23363C173.907 1.85491 174.917 1.52163 175.927 1.2338L177.025 0.953544L178.169 0.696014C179.344 0.461978 180.529 0.28754 181.722 0.173372C182.123 0.127926 182.524 0.0976281 182.933 0.0673301C183.342 0.0370322 183.751 0.0218818 184.16 0.00673288C184.57 -0.00841609 184.986 0.00673288 185.403 0.00673288C192.099 0.00673288 199.446 1.83219 207.043 6.21781C210.005 7.92965 212.671 9.58846 215.125 11.2776C215.428 11.4821 215.723 11.6866 216.011 11.8987C216.769 12.444 217.526 13.0046 218.284 13.5651L219.276 14.3225C220.033 14.8982 220.723 15.4814 221.419 16.0874C221.7 16.3222 221.965 16.557 222.237 16.7994L222.646 17.1629L223.51 17.9583C225.237 19.5762 226.873 21.2881 228.411 23.0862L229.001 23.7906C229.304 24.1466 229.6 24.5481 229.895 24.8813C230.357 25.4494 230.819 26.0402 231.274 26.6462L232.069 27.7066C232.63 28.4641 233.19 29.2215 233.751 30.085C234.023 30.4865 234.304 30.8879 234.576 31.3045C234.849 31.7211 235.129 32.1377 235.409 32.5694C235.69 33.0012 235.97 33.4329 236.243 33.8723C236.803 34.7585 237.371 35.6674 237.939 36.6142C238.257 37.1349 238.43 37.7312 238.439 38.3412Z" fill="white"/>
<g opacity="0.2">
<path d="M238.439 38.3412C238.44 38.9468 238.281 39.5419 237.978 40.0661C237.675 40.5902 237.238 41.0248 236.712 41.3256L229.236 45.6203C228.806 45.868 228.328 46.0199 227.834 46.0657C227.34 46.1115 226.841 46.05 226.373 45.8854C226.283 46.3548 226.095 46.7999 225.821 47.1915C225.546 47.5831 225.193 47.9124 224.782 48.1577L224.51 48.3168L217.276 52.4979L217.072 52.6115C216.647 52.8171 216.185 52.9345 215.714 52.9567C215.243 52.9788 214.772 52.9052 214.33 52.7403C214.25 53.2438 214.058 53.7229 213.768 54.1424C213.478 54.5619 213.098 54.911 212.656 55.1641L205.839 59.1029C207.1 61.2071 207.806 63.597 207.891 66.0487C207.891 68.5255 206.899 70.1616 205.369 70.7676C205.118 70.9652 204.84 71.1259 204.543 71.2448C204.293 71.4471 204.012 71.6082 203.71 71.722C203.158 72.0442 202.605 72.3649 202.051 72.6839C201.797 72.8805 201.517 73.0411 201.218 73.1611C200.968 73.3592 200.689 73.5199 200.393 73.6383C200.138 73.8349 199.858 73.9955 199.559 74.1155C199.311 74.3171 199.032 74.4782 198.734 74.5927C197.439 75.6152 195.537 75.6531 193.386 74.4109C189.501 72.1386 186.342 66.7076 186.342 62.2008C186.342 59.9285 187.145 58.353 188.425 57.694C188.563 57.6294 188.704 57.5737 188.849 57.5274C188.977 57.4132 189.114 57.3093 189.258 57.2168C189.394 57.1535 189.533 57.0978 189.675 57.0502C189.801 56.9336 189.938 56.8296 190.084 56.7396C190.22 56.6718 190.362 56.616 190.508 56.573C190.636 56.4564 190.772 56.35 190.917 56.2549C191.053 56.194 191.192 56.1409 191.334 56.0958C191.461 55.9792 191.598 55.8728 191.743 55.7777C191.879 55.7123 192.021 55.6591 192.167 55.6186C192.293 55.4997 192.43 55.3932 192.576 55.3005C192.711 55.2371 192.85 55.1815 192.992 55.1338C193.12 55.0196 193.257 54.9158 193.401 54.8233C193.539 54.7587 193.681 54.703 193.826 54.6566C193.953 54.5424 194.09 54.4386 194.235 54.3461C194.37 54.2828 194.509 54.2271 194.651 54.1795C194.779 54.0942 194.914 54.0183 195.053 53.9522C195.191 53.8889 195.332 53.8332 195.477 53.7856C195.603 53.669 195.74 53.565 195.886 53.475C195.695 53.2958 195.492 53.1288 195.28 52.9751L194.659 52.5282L194.045 52.1192C193.826 51.9753 193.606 51.8389 193.379 51.7102C192.653 51.2918 191.893 50.937 191.106 50.6497C190.864 50.5588 190.622 50.4755 190.349 50.4074C189.471 50.133 188.557 49.99 187.637 49.9832H187.205H186.887C186.726 49.9832 186.567 49.9832 186.41 49.9832C185.644 49.9917 184.89 49.7963 184.224 49.4169C183.558 49.0376 183.006 48.4879 182.623 47.8245L182.441 47.5139C182.441 47.5139 184.107 41.7724 184.123 41.7497L189.425 38.5684C190.472 37.8273 191.63 37.2572 192.856 36.8793C193.063 36.8342 193.273 36.8039 193.485 36.7884H193.659C193.929 36.7694 194.2 36.7694 194.469 36.7884H194.757H194.833C195.365 36.8525 195.892 36.9563 196.408 37.099C198.355 37.6701 200.217 38.4979 201.945 39.5607C202.354 39.7955 202.703 40.0379 203.119 40.3181C202.46 39.7198 201.786 39.1593 201.097 38.6215C200.787 38.3715 200.476 38.1291 200.158 37.864C200.115 37.8198 200.067 37.7816 200.014 37.7504C199.741 37.5383 199.461 37.3338 199.173 37.1293C198.666 36.7657 198.151 36.3718 197.62 36.0537L196.924 35.5992C196.568 35.3644 196.166 35.1372 195.84 34.9175C195.515 34.6979 194.939 34.3722 194.485 34.1071C190.266 31.6757 186.44 30.6455 182.979 30.6455H182.259L181.449 30.6986C181.244 30.6986 181.047 30.6985 180.843 30.7667L180.419 30.8273L180.04 30.8879L179.472 30.994L178.813 31.153C178.578 31.2136 178.343 31.2742 178.108 31.35C177.874 31.4257 177.715 31.4711 177.525 31.5317C177.053 31.6954 176.556 31.7798 176.056 31.7817C175.29 31.7887 174.536 31.5926 173.871 31.2133C173.206 30.8341 172.653 30.2854 172.269 29.623L172.185 29.4791L173.48 23.9345C173.48 23.9345 173.48 23.9345 173.571 23.8588C174.17 23.4346 177.124 21.3819 177.359 21.2456C178.749 20.4309 180.209 19.7414 181.722 19.1853C182.343 18.948 182.979 18.7359 183.63 18.5491L184.494 18.3143C184.782 18.2461 185.069 18.1703 185.365 18.1098C185.956 17.981 186.546 17.8749 187.152 17.784L187.91 17.678H188.084L188.993 17.5947C189.001 17.5911 189.01 17.5893 189.02 17.5893C189.029 17.5893 189.038 17.5911 189.046 17.5947L189.887 17.5417C189.965 17.5341 190.044 17.5341 190.122 17.5417C191.148 17.5117 192.174 17.5421 193.197 17.6326C194.529 17.7625 195.848 17.9981 197.143 18.337C192.565 15.7699 187.484 14.2246 182.252 13.8074C180.37 13.6868 178.48 13.7425 176.609 13.9741C176.139 14.0271 175.662 14.0953 175.2 14.1786H175.056C174.768 14.224 174.495 14.2771 174.215 14.3452C173.738 14.4437 173.268 14.5497 172.799 14.6709C172.329 14.7921 171.875 14.9285 171.42 15.0724C171.087 15.1683 170.761 15.2744 170.443 15.3905C170.027 15.5344 169.61 15.6935 169.208 15.8526C168.631 16.0875 168.014 16.2084 167.391 16.2086C166.501 16.2033 165.629 15.9648 164.861 15.5169C164.092 15.0689 163.455 14.4273 163.013 13.656L162.906 13.4742C162.967 13.1863 164.353 7.08131 164.353 7.08131H164.391L164.49 7.00556L164.558 6.95254C165.255 6.43747 167.512 4.77866 167.747 4.68019C169.392 3.72142 171.115 2.903 172.897 2.23363C173.907 1.85491 174.917 1.52163 175.927 1.2338L177.025 0.953544L178.169 0.696014C179.344 0.461978 180.529 0.28754 181.722 0.173372C182.123 0.127926 182.524 0.0976281 182.933 0.0673301C183.342 0.0370322 183.751 0.0218818 184.16 0.00673288C184.57 -0.00841609 184.986 0.00673288 185.403 0.00673288C192.099 0.00673288 199.446 1.83219 207.043 6.21781C210.005 7.92965 212.671 9.58846 215.125 11.2776C215.428 11.4821 215.723 11.6866 216.011 11.8987C216.769 12.444 217.526 13.0046 218.284 13.5651L219.276 14.3225C220.033 14.8982 220.723 15.4814 221.419 16.0874C221.7 16.3222 221.965 16.557 222.237 16.7994L222.646 17.1629L223.51 17.9583C225.237 19.5762 226.873 21.2881 228.411 23.0862L229.001 23.7906C229.304 24.1466 229.6 24.5481 229.895 24.8813C230.357 25.4494 230.819 26.0402 231.274 26.6462L232.069 27.7066C232.63 28.4641 233.19 29.2215 233.751 30.085C234.023 30.4865 234.304 30.8879 234.576 31.3045C234.849 31.7211 235.129 32.1377 235.409 32.5694C235.69 33.0012 235.97 33.4329 236.243 33.8723C236.803 34.7585 237.371 35.6674 237.939 36.6142C238.257 37.1349 238.43 37.7312 238.439 38.3412Z" fill="black"/>
</g>
<path d="M200.415 70.4115C200.415 74.8804 197.264 76.721 193.378 74.4638C189.493 72.2066 186.334 66.7682 186.334 62.2613C186.334 59.989 187.137 58.4135 188.417 57.7545C189.697 57.0955 191.447 57.0955 193.378 58.2014C195.432 59.5365 197.14 61.339 198.363 63.4613C199.586 65.5835 200.289 67.9652 200.415 70.4115Z" fill="white"/>
<path d="M206.293 54.4977C203.238 50.0762 199.195 46.4273 194.484 43.8404C192.296 42.5276 189.889 41.6194 187.38 41.159C186.657 41.0317 185.914 41.0832 185.215 41.3089C184.517 41.5347 183.884 41.9279 183.373 42.4543L183.327 42.5073C182.697 43.1612 182.283 43.9921 182.139 44.8885C181.996 45.7849 182.13 46.7038 182.524 47.5216C182.576 47.6382 182.634 47.752 182.698 47.8625C183.081 48.5259 183.634 49.0755 184.3 49.4549C184.965 49.8343 185.72 50.0297 186.486 50.0212C186.642 50.0212 186.801 50.0212 186.963 50.0212H187.281H187.713C188.633 50.028 189.546 50.171 190.424 50.4453C190.667 50.5135 190.909 50.5968 191.182 50.6877C191.969 50.975 192.729 51.3298 193.454 51.7482C193.681 51.8769 193.901 52.0133 194.121 52.1572C194.34 52.3011 194.537 52.4223 194.734 52.5662C194.931 52.7101 195.151 52.854 195.355 53.0131C195.56 53.1722 195.772 53.3312 195.977 53.4979C197.773 54.9736 199.368 56.68 200.718 58.5728C201.267 59.2776 202.067 59.7433 202.951 59.8729C203.835 60.0025 204.735 59.786 205.464 59.2686C206.192 58.7511 206.693 57.9725 206.861 57.095C207.03 56.2175 206.854 55.3089 206.369 54.5583L206.293 54.4977Z" fill="white"/>
<path d="M218.457 47.7109C212.186 37.5762 205.763 30.9789 196.234 25.351C192.989 23.4148 189.351 22.2332 185.588 21.8936C181.825 21.554 178.034 22.0652 174.495 23.3892C174.172 23.5048 173.864 23.66 173.579 23.8513L173.488 23.927C172.637 24.5378 172.037 25.4364 171.799 26.4561C171.561 27.4757 171.701 28.5472 172.192 29.4716L172.276 29.6155C172.66 30.2779 173.213 30.8266 173.878 31.2058C174.543 31.585 175.297 31.7812 176.063 31.7742C176.563 31.7723 177.06 31.6879 177.532 31.5242C177.722 31.4636 177.919 31.3955 178.116 31.3424C178.313 31.2894 178.585 31.2061 178.82 31.1455L179.479 30.9864L180.047 30.8804L180.426 30.8198L180.85 30.7592C181.055 30.7592 181.251 30.7062 181.456 30.691L182.266 30.638H182.986C186.448 30.638 190.273 31.6682 194.492 34.0996L195.848 34.91C196.211 35.1297 196.605 35.3569 196.931 35.5917L197.628 36.0462C198.158 36.3946 198.673 36.7582 199.18 37.1218C199.468 37.3263 199.748 37.5308 200.021 37.7429C200.074 37.7741 200.122 37.8123 200.165 37.8565C200.483 38.0837 200.794 38.3261 201.104 38.614C201.793 39.1517 202.468 39.7123 203.127 40.3106C203.127 40.3106 203.127 40.3106 203.164 40.3106C206.828 43.5703 210.015 47.3286 212.633 51.4754C213.033 52.096 213.626 52.5672 214.322 52.8161C214.764 52.981 215.235 53.0546 215.706 53.0325C216.177 53.0103 216.639 52.8929 217.064 52.6873L217.268 52.5737C217.671 52.3392 218.022 52.0262 218.301 51.6534C218.58 51.2805 218.781 50.8554 218.893 50.4033C219.004 49.9511 219.024 49.4811 218.951 49.0212C218.877 48.5613 218.712 48.1209 218.465 47.7261L218.457 47.7109Z" fill="white"/>
<path d="M230.478 40.8786C221.389 25.7297 213.814 18.7081 199.574 10.4671C186.932 3.20312 174.98 2.97589 165.587 6.445C165.219 6.5849 164.866 6.76259 164.535 6.97522L164.466 7.02824L164.368 7.10399H164.33C163.373 7.82525 162.702 8.86255 162.437 10.0316C162.172 11.2007 162.33 12.4258 162.883 13.4893C162.883 13.5574 162.952 13.6105 162.989 13.6786C163.432 14.4499 164.069 15.0916 164.838 15.5395C165.606 15.9875 166.478 16.226 167.367 16.2312C167.991 16.2311 168.608 16.1102 169.185 15.8752C169.587 15.7162 170.003 15.5571 170.42 15.4132C170.837 15.2693 171.064 15.1935 171.397 15.0951C171.852 14.9511 172.306 14.8148 172.776 14.6936C173.245 14.5724 173.715 14.4664 174.192 14.3679C174.472 14.2997 174.745 14.2467 175.033 14.2013H175.177C175.639 14.118 176.116 14.0498 176.586 13.9968C178.464 13.7525 180.361 13.6891 182.251 13.8074C187.513 14.2078 192.622 15.7593 197.218 18.3521L198.347 18.9883C210.315 25.8963 216.912 31.865 224.555 44.4689C225.047 45.2111 225.807 45.7343 226.676 45.9295C227.545 46.1246 228.456 45.9765 229.218 45.5162C229.981 45.0558 230.536 44.3187 230.768 43.4588C231 42.5989 230.89 41.6826 230.463 40.9013L230.478 40.8786Z" fill="white"/>
<path d="M184.062 177.174L207.361 163.722L196.878 130.432L184.062 177.174Z" fill="#37474F"/>
<path d="M183.122 183.771C183.524 183.507 183.827 183.119 183.986 182.665L199.498 128.887L196.878 130.401L181.153 184.877L183.122 183.771Z" fill="#263238"/>
<path d="M179.191 183.771L181.153 184.907L196.878 130.454L194.295 128.94L178.782 182.718C178.738 182.915 178.753 183.12 178.825 183.308C178.898 183.495 179.026 183.657 179.191 183.771Z" fill="#37474F"/>
<path d="M249.142 181.136C249.178 181.351 249.149 181.572 249.06 181.771C248.971 181.97 248.826 182.139 248.642 182.257L246.68 183.393L230.956 110.761L233.576 109.246L246.968 171.122L249.142 181.136Z" fill="#37474F"/>
<path d="M244.711 182.257C244.31 181.998 244.02 181.598 243.901 181.136L228.335 109.246L230.956 110.761L246.68 183.393L244.711 182.257Z" fill="#263238"/>
<path d="M196.878 130.454L212.602 203.086L210.641 201.95C210.24 201.692 209.949 201.296 209.823 200.837L194.295 128.94L196.878 130.454Z" fill="#263238"/>
<path d="M214.572 201.927C214.756 201.812 214.902 201.645 214.99 201.446C215.077 201.248 215.103 201.027 215.065 200.814L199.499 128.94L196.878 130.454L212.603 203.086L214.572 201.927Z" fill="#37474F"/>
<path d="M230.956 107.731L233.576 109.246L196.878 130.432L194.257 128.917L230.956 107.731Z" fill="#37474F"/>
<path d="M233.577 109.246L196.878 130.432L210.277 192.308L246.968 171.122L233.577 109.246Z" fill="#455A64"/>
<path d="M211.383 148.929C210.997 148.929 210.777 148.929 210.732 148.929C210.668 148.922 210.606 148.902 210.55 148.871C210.494 148.84 210.445 148.798 210.406 148.747C210.328 148.646 210.293 148.518 210.307 148.391C210.459 147.005 211.55 143.422 218.276 140.014C223.752 137.234 227.88 138.014 228.691 138.377C228.804 138.429 228.894 138.522 228.94 138.638C228.987 138.754 228.987 138.883 228.941 138.999C228.888 139.135 227.524 142.369 221.457 145.869C216.655 148.633 212.845 148.929 211.383 148.929ZM225.934 138.946C223.409 139.002 220.933 139.653 218.708 140.847C213.118 143.687 211.716 146.603 211.368 147.959C214.769 147.811 218.076 146.794 220.972 145.005C225.381 142.468 227.168 140.104 227.789 139.112C227.178 138.994 226.556 138.938 225.934 138.946Z" fill="white"/>
<path d="M219.291 160.222C218.395 160.228 217.509 160.04 216.693 159.669C212.959 157.973 211.315 152.852 210.308 148.535C210.286 148.471 210.277 148.403 210.283 148.335C210.289 148.268 210.309 148.202 210.342 148.143C210.375 148.083 210.419 148.032 210.474 147.991C210.528 147.95 210.59 147.921 210.656 147.905C210.722 147.89 210.79 147.888 210.857 147.901C210.923 147.914 210.986 147.94 211.042 147.979C211.098 148.018 211.145 148.067 211.18 148.125C211.215 148.183 211.238 148.248 211.247 148.315C212.209 152.39 213.739 157.268 217.094 158.791C218.897 159.609 221.086 159.336 223.608 157.995C230.872 154.14 230.016 145.505 228.024 138.938C227.999 138.876 227.987 138.809 227.989 138.741C227.991 138.674 228.007 138.608 228.036 138.547C228.065 138.486 228.107 138.432 228.158 138.389C228.209 138.345 228.269 138.312 228.333 138.292C228.397 138.273 228.465 138.267 228.532 138.275C228.599 138.283 228.663 138.305 228.721 138.34C228.779 138.374 228.829 138.42 228.868 138.475C228.907 138.529 228.935 138.592 228.948 138.658C231.978 148.573 230.274 155.556 224.063 158.851C222.608 159.69 220.969 160.161 219.291 160.222Z" fill="white"/>
<path d="M229.842 149.671C229.746 149.67 229.652 149.641 229.572 149.587C229.493 149.534 229.431 149.457 229.395 149.368C229.371 149.309 229.358 149.246 229.358 149.183C229.358 149.119 229.371 149.056 229.395 148.998C229.42 148.939 229.456 148.886 229.502 148.842C229.547 148.797 229.601 148.763 229.66 148.739C231.895 147.823 232.826 145.52 232.948 143.672C233.046 142.195 232.629 141.15 232.19 140.885C232.067 140.808 231.929 140.758 231.786 140.738C231.642 140.719 231.496 140.73 231.357 140.771C230.675 141.082 230.119 141.617 229.781 142.286C229.722 142.4 229.62 142.487 229.497 142.526C229.374 142.565 229.241 142.553 229.126 142.494C229.012 142.435 228.925 142.333 228.886 142.21C228.847 142.087 228.859 141.953 228.918 141.839C229.386 140.934 230.151 140.217 231.084 139.809C231.349 139.73 231.627 139.707 231.901 139.743C232.175 139.778 232.439 139.87 232.675 140.013C233.554 140.521 234.046 141.975 233.925 143.71C233.781 145.846 232.69 148.52 230.039 149.603C229.979 149.639 229.912 149.662 229.842 149.671Z" fill="white"/>
<path d="M213.428 140.142L213.292 140.082C213.159 140.034 213.031 139.971 212.913 139.892L212.656 139.703L212.398 139.445C212.202 139.217 212.038 138.962 211.914 138.688C211.771 138.361 211.672 138.017 211.618 137.665C211.55 137.283 211.525 136.894 211.542 136.506C211.576 135.668 211.729 134.839 211.997 134.045C212.133 133.636 212.3 133.287 212.444 132.893C212.576 132.556 212.685 132.209 212.769 131.856C212.926 131.242 212.926 130.599 212.769 129.985C212.637 129.539 212.404 129.129 212.088 128.788C211.995 128.686 211.897 128.59 211.792 128.5L211.686 128.402C211.867 128.465 212.042 128.543 212.209 128.637C212.672 128.901 213.046 129.296 213.284 129.773C213.614 130.466 213.725 131.242 213.603 132C213.549 132.418 213.45 132.83 213.307 133.227C213.171 133.613 213.019 133.984 212.906 134.348C212.792 134.711 212.671 135.105 212.58 135.469C212.493 135.831 212.427 136.197 212.383 136.567C212.341 136.909 212.321 137.253 212.323 137.597C212.333 137.903 212.368 138.207 212.429 138.506C212.492 138.767 212.581 139.02 212.694 139.264C212.787 139.444 212.899 139.614 213.027 139.771C213.111 139.88 213.208 139.979 213.315 140.066L213.428 140.142Z" fill="white"/>
<path d="M215.723 137.378L215.617 137.256C215.516 137.15 215.42 137.039 215.33 136.923C215.196 136.728 215.077 136.523 214.974 136.31C214.842 136.026 214.753 135.725 214.709 135.416C214.643 135.051 214.628 134.679 214.663 134.31C214.693 133.907 214.757 133.506 214.852 133.113C215.034 132.303 215.314 131.492 215.519 130.689C215.625 130.288 215.739 129.871 215.799 129.493C215.869 129.121 215.9 128.742 215.89 128.364C215.869 128.018 215.81 127.675 215.716 127.341C215.53 126.77 215.211 126.25 214.784 125.827C214.629 125.669 214.464 125.519 214.292 125.38C214.14 125.257 213.98 125.143 213.815 125.039C214.011 125.08 214.204 125.138 214.39 125.213C214.897 125.421 215.356 125.731 215.739 126.122C216.294 126.713 216.644 127.467 216.738 128.273C216.763 128.497 216.775 128.722 216.776 128.947C216.775 129.173 216.758 129.398 216.723 129.621C216.657 130.06 216.565 130.495 216.451 130.924C216.208 131.773 215.913 132.583 215.693 133.325C215.58 133.696 215.466 134.083 215.398 134.393C215.326 134.709 215.286 135.031 215.277 135.355C215.265 135.499 215.265 135.643 215.277 135.787C215.278 135.92 215.296 136.052 215.33 136.181C215.369 136.394 215.425 136.604 215.496 136.81C215.633 137.173 215.723 137.378 215.723 137.378Z" fill="white"/>
<path d="M219.639 137.272L219.503 137.211C219.364 137.164 219.234 137.095 219.117 137.007C218.918 136.88 218.739 136.724 218.587 136.545L218.329 136.196C218.253 136.06 218.185 135.916 218.109 135.757C217.972 135.421 217.875 135.07 217.821 134.712C217.758 134.306 217.743 133.894 217.776 133.484C217.822 132.629 217.99 131.785 218.276 130.977C218.42 130.561 218.594 130.174 218.738 129.803C218.882 129.432 219.011 129.046 219.109 128.72C219.299 128.09 219.359 127.427 219.283 126.773C219.24 126.511 219.161 126.257 219.049 126.016C218.959 125.824 218.847 125.644 218.715 125.478C218.63 125.365 218.537 125.259 218.435 125.16L218.337 125.054C218.514 125.134 218.684 125.23 218.844 125.342C219.038 125.472 219.211 125.63 219.359 125.812C219.559 126.05 219.716 126.322 219.821 126.614C220.06 127.348 220.099 128.133 219.935 128.887C219.862 129.304 219.753 129.715 219.609 130.114C219.465 130.515 219.306 130.871 219.185 131.273C219.049 131.647 218.936 132.029 218.844 132.416C218.748 132.786 218.672 133.16 218.617 133.538C218.573 133.889 218.55 134.243 218.549 134.598C218.55 134.913 218.58 135.228 218.64 135.537C218.704 135.797 218.793 136.051 218.905 136.295C218.998 136.481 219.112 136.657 219.246 136.817C219.332 136.927 219.428 137.028 219.533 137.12L219.639 137.272Z" fill="white"/>
<path d="M222.412 171.554C222.518 171.493 222.631 171.554 222.631 171.69C222.534 172.41 222.274 173.099 221.869 173.703C221.465 174.307 220.928 174.81 220.298 175.174C218.571 176.174 217.322 175.78 217.322 173.485C217.32 172.511 217.577 171.553 218.067 170.711C218.556 169.868 219.261 169.171 220.109 168.691C221.268 168.024 221.828 168.433 221.828 169.039C221.82 169.176 221.78 169.31 221.712 169.43C221.644 169.549 221.549 169.651 221.434 169.728C221.2 169.865 221.139 169.796 221.139 169.796C221.174 169.686 221.192 169.571 221.192 169.456C221.192 168.872 220.813 168.698 220.064 169.122C219.446 169.573 218.945 170.163 218.602 170.846C218.258 171.528 218.081 172.282 218.087 173.046C218.087 174.992 219.124 175.432 220.298 174.758C220.849 174.454 221.315 174.018 221.655 173.489C221.995 172.96 222.197 172.355 222.245 171.728C222.284 171.656 222.342 171.596 222.412 171.554Z" fill="white"/>
<path d="M223.98 172.622C223.071 173.152 222.283 172.947 222.283 171.698C222.286 171.12 222.441 170.554 222.733 170.056C223.024 169.557 223.441 169.144 223.942 168.857C224.866 168.319 225.601 168.539 225.601 169.781C225.588 170.352 225.433 170.911 225.15 171.407C224.867 171.903 224.465 172.321 223.98 172.622ZM223.98 172.296C224.189 172.177 224.367 172.01 224.498 171.808C224.63 171.607 224.712 171.377 224.737 171.137C224.46 171.275 224.144 171.313 223.842 171.246C223.54 171.178 223.27 171.009 223.078 170.766C223.078 170.91 223.078 171.069 223.078 171.236C223.078 172.372 223.343 172.667 223.98 172.296ZM223.381 169.933C223.381 170.69 224.04 171.016 224.79 170.789C224.79 170.622 224.79 170.44 224.79 170.236C224.79 169.115 224.608 168.781 223.919 169.183C223.777 169.257 223.654 169.363 223.561 169.494C223.467 169.624 223.406 169.774 223.381 169.933Z" fill="white"/>
<path d="M226.926 167.569V173.977C226.849 174.105 226.739 174.21 226.608 174.28C226.381 174.409 226.176 174.379 226.176 174.015V166.706C226.176 165.35 226.411 164.509 227.199 164.055C227.752 163.737 228.024 163.934 228.024 164.691C228.004 165.58 227.702 166.439 227.161 167.145L227.918 166.714C228.161 166.577 228.206 166.645 228.206 166.842L226.926 167.569ZM227.684 164.911C227.684 164.343 227.517 164.206 227.282 164.343C227.047 164.479 226.964 164.797 226.941 167.1C227.428 166.464 227.684 165.681 227.668 164.881L227.684 164.911Z" fill="white"/>
<path d="M229.259 166.191V172.599C229.182 172.727 229.072 172.832 228.941 172.902C228.714 173.031 228.509 173 228.509 172.644V165.297C228.509 163.941 228.744 163.101 229.532 162.646C230.085 162.328 230.357 162.525 230.357 163.282C230.337 164.171 230.035 165.031 229.494 165.736L230.251 165.305C230.494 165.168 230.539 165.237 230.539 165.433L229.259 166.191ZM230.017 163.532C230.017 162.964 229.85 162.828 229.615 162.964C229.38 163.101 229.297 163.419 229.274 165.729C229.754 165.098 230.01 164.325 230.001 163.532H230.017Z" fill="white"/>
<path d="M234.341 164.744C234.447 164.676 234.516 164.744 234.516 164.911C234.47 165.448 234.294 165.965 234.002 166.418C233.71 166.871 233.312 167.246 232.842 167.509C231.615 168.213 230.85 168.024 230.85 166.835C230.848 166.245 231.001 165.666 231.292 165.153C231.582 164.64 232.002 164.212 232.508 163.911C233.266 163.472 233.516 163.835 233.516 164.267C233.43 164.804 233.218 165.313 232.897 165.752C232.575 166.19 232.154 166.546 231.668 166.789C231.774 167.456 232.221 167.547 232.842 167.183C233.248 166.945 233.587 166.607 233.827 166.201C234.066 165.796 234.199 165.336 234.213 164.865C234.213 164.865 234.22 164.812 234.341 164.744ZM231.637 166.494C231.97 166.301 232.258 166.038 232.479 165.722C232.7 165.407 232.849 165.048 232.917 164.669C232.917 164.229 232.713 164.116 232.372 164.313C231.857 164.608 231.615 165.184 231.615 166.418L231.637 166.494Z" fill="white"/>
<path d="M237.727 162.782C237.841 162.722 237.901 162.782 237.901 162.949C237.859 163.487 237.684 164.006 237.392 164.459C237.1 164.913 236.7 165.287 236.227 165.547C235.008 166.259 234.243 166.07 234.243 164.873C234.241 164.284 234.393 163.706 234.682 163.193C234.972 162.681 235.389 162.252 235.894 161.949C236.651 161.51 236.909 161.874 236.909 162.313C236.821 162.849 236.607 163.357 236.285 163.794C235.962 164.232 235.54 164.586 235.053 164.828C235.167 165.502 235.614 165.585 236.227 165.221C236.634 164.983 236.974 164.646 237.215 164.24C237.457 163.835 237.591 163.375 237.606 162.904C237.606 162.904 237.613 162.851 237.727 162.782ZM235.03 164.54C235.364 164.348 235.651 164.085 235.871 163.769C236.091 163.454 236.238 163.093 236.303 162.714C236.303 162.283 236.106 162.161 235.765 162.358C235.25 162.661 235.008 163.237 235.008 164.464L235.03 164.54Z" fill="white"/>
<path d="M170.64 115.593V154.428C170.649 154.598 170.698 154.764 170.783 154.911C170.869 155.059 170.989 155.184 171.132 155.276L172.45 156.033C172.602 156.112 172.771 156.153 172.942 156.153C173.114 156.153 173.282 156.112 173.435 156.033L174.76 155.276C174.903 155.182 175.022 155.055 175.108 154.906C175.193 154.758 175.243 154.591 175.253 154.42V115.593C175.251 115.443 175.19 115.3 175.084 115.194C174.978 115.088 174.834 115.027 174.684 115.025H171.208C171.057 115.025 170.913 115.085 170.806 115.192C170.7 115.298 170.64 115.443 170.64 115.593Z" fill="#263238"/>
<path d="M174.685 115.025H173.51C173.36 115.027 173.217 115.088 173.111 115.194C173.005 115.3 172.944 115.443 172.942 115.593V155.738C172.942 156.049 173.162 156.177 173.435 156.018L174.76 155.261C174.903 155.166 175.023 155.04 175.108 154.891C175.194 154.743 175.243 154.576 175.253 154.405V115.593C175.251 115.443 175.19 115.3 175.084 115.194C174.978 115.088 174.835 115.027 174.685 115.025Z" fill="#455A64"/>
<path d="M148.355 128.41V167.244C148.364 167.414 148.414 167.58 148.499 167.727C148.585 167.875 148.704 168 148.848 168.092L150.166 168.85C150.318 168.928 150.487 168.969 150.658 168.969C150.829 168.969 150.998 168.928 151.15 168.85L152.476 168.092C152.619 168 152.739 167.875 152.824 167.727C152.91 167.58 152.959 167.414 152.968 167.244V128.41C152.968 128.259 152.908 128.114 152.802 128.008C152.695 127.901 152.551 127.841 152.4 127.841H148.924C148.773 127.841 148.628 127.901 148.522 128.008C148.415 128.114 148.355 128.259 148.355 128.41Z" fill="#263238"/>
<path d="M152.4 127.841H151.226C151.076 127.843 150.933 127.904 150.827 128.01C150.721 128.116 150.66 128.259 150.658 128.41V168.554C150.658 168.865 150.885 168.994 151.151 168.835L152.476 168.077C152.62 167.985 152.739 167.86 152.825 167.712C152.91 167.565 152.959 167.399 152.968 167.229V128.41C152.968 128.259 152.909 128.114 152.802 128.008C152.695 127.901 152.551 127.841 152.4 127.841Z" fill="#455A64"/>
<path d="M149.833 99.9068C149.867 100.178 149.847 100.454 149.774 100.718C149.702 100.982 149.578 101.229 149.41 101.445C149.242 101.661 149.033 101.841 148.795 101.976C148.557 102.112 148.294 102.198 148.023 102.232H147.765C147.257 102.232 146.767 102.047 146.386 101.711C146.005 101.375 145.76 100.911 145.697 100.407C144.501 90.8174 146.205 69.3513 150.31 57.2927C150.407 56.9978 150.569 56.7284 150.784 56.5044C150.999 56.2804 151.262 56.1075 151.553 55.9985C151.844 55.8894 152.155 55.847 152.464 55.8744C152.774 55.9018 153.073 55.9982 153.34 56.1565C153.758 56.3977 154.078 56.7773 154.245 57.2296C154.412 57.6819 154.417 58.1784 154.256 58.6334C150.295 70.0027 148.682 90.6735 149.833 99.9068Z" fill="#455A64"/>
<path d="M173.987 105.459C173.709 105.458 173.438 105.371 173.212 105.207C172.986 105.044 172.818 104.814 172.73 104.55C170.056 96.3693 156.142 88.6888 147.333 88.6888C146.981 88.6888 146.644 88.5491 146.396 88.3006C146.147 88.052 146.007 87.7148 146.007 87.3633C146.007 87.0117 146.147 86.6745 146.396 86.426C146.644 86.1774 146.981 86.0377 147.333 86.0377C157.081 86.0377 172.177 94.3696 175.252 103.679C175.307 103.844 175.328 104.019 175.315 104.193C175.302 104.367 175.254 104.536 175.175 104.692C175.097 104.847 174.988 104.986 174.856 105.099C174.723 105.212 174.57 105.299 174.404 105.353C174.272 105.411 174.131 105.447 173.987 105.459Z" fill="#37474F"/>
<path d="M175.412 93.3396C175.132 93.34 174.859 93.2515 174.633 93.0867C174.407 92.9219 174.24 92.6895 174.154 92.4231C171.352 83.9245 157.097 76.7894 148.492 77.6756C148.148 77.7013 147.808 77.5918 147.543 77.3704C147.278 77.1491 147.11 76.8333 147.075 76.4901C147.039 76.1469 147.139 75.8035 147.353 75.5326C147.567 75.2618 147.877 75.0849 148.219 75.0397C157.945 74.0474 173.473 81.8946 176.669 91.5975C176.724 91.7631 176.745 91.9378 176.732 92.1116C176.718 92.2854 176.671 92.4549 176.592 92.6104C176.513 92.7659 176.405 92.9043 176.272 93.0178C176.14 93.1312 175.987 93.2174 175.821 93.2714C175.689 93.3161 175.551 93.3391 175.412 93.3396Z" fill="#37474F"/>
<path d="M178.616 83.9699C178.361 83.9732 178.112 83.9036 177.895 83.7694C177.679 83.6352 177.506 83.4419 177.396 83.2125C173.314 73.9186 158.347 65.973 150.583 67.0485C150.405 67.0846 150.222 67.0839 150.045 67.0466C149.868 67.0092 149.7 66.9359 149.553 66.8313C149.405 66.7266 149.28 66.5928 149.186 66.4381C149.092 66.2834 149.031 66.111 149.006 65.9317C148.981 65.7524 148.993 65.5698 149.041 65.3953C149.09 65.2209 149.173 65.0582 149.287 64.9172C149.401 64.7763 149.542 64.6602 149.702 64.576C149.863 64.4918 150.039 64.4414 150.219 64.4278C159.021 63.2083 175.26 71.7523 179.828 82.1521C179.898 82.3111 179.936 82.4825 179.94 82.6564C179.944 82.8302 179.913 83.0031 179.85 83.165C179.786 83.327 179.691 83.4748 179.571 83.5999C179.45 83.7251 179.306 83.8251 179.146 83.8942C178.976 83.955 178.796 83.9808 178.616 83.9699Z" fill="#37474F"/>
<path d="M181.729 72.5855C182.169 72.842 182.5 73.2517 182.658 73.7364C182.816 74.2212 182.79 74.7471 182.585 75.2138C177.798 86.4013 175.275 100.073 175.275 115.04V117.048L175.116 117.214C175.035 117.299 174.938 117.366 174.829 117.41C174.721 117.454 174.605 117.476 174.488 117.472C174.187 117.453 173.892 117.382 173.617 117.26C173.478 117.205 173.337 117.159 173.192 117.123C172.64 117.123 172.11 116.904 171.719 116.513C171.329 116.123 171.109 115.593 171.109 115.04C171.109 99.5127 173.753 85.2879 178.767 73.5701C178.881 73.2983 179.052 73.0539 179.268 72.8532C179.484 72.6525 179.74 72.5001 180.02 72.4062C180.299 72.3124 180.596 72.2791 180.889 72.3087C181.182 72.3383 181.466 72.4301 181.721 72.5779L181.729 72.5855Z" fill="#455A64"/>
<path d="M175.253 116.555V117.063C175.226 117.527 175.104 117.981 174.892 118.396C174.681 118.811 174.386 119.177 174.026 119.471L151.878 135.469C151.503 135.713 151.07 135.854 150.623 135.877C150.175 135.9 149.73 135.803 149.333 135.597L118.126 117.578C117.746 117.327 117.429 116.991 117.201 116.597C116.974 116.202 116.842 115.76 116.815 115.305V114.783C116.837 114.335 116.975 113.9 117.217 113.523C117.459 113.145 117.796 112.838 118.194 112.632L146.22 99.6868C146.65 99.516 147.112 99.4392 147.574 99.4614C148.037 99.4836 148.489 99.6044 148.901 99.8156L173.95 114.283C174.329 114.534 174.644 114.87 174.871 115.265C175.097 115.659 175.228 116.101 175.253 116.555Z" fill="#263238"/>
<path d="M173.942 114.283L148.893 99.8156C148.481 99.6044 148.029 99.4836 147.566 99.4614C147.104 99.4392 146.642 99.516 146.212 99.6868L118.186 112.632C117.429 112.98 117.429 113.601 118.118 114.025L149.34 132.045C149.738 132.251 150.183 132.347 150.63 132.324C151.077 132.302 151.51 132.161 151.885 131.916L174.018 115.927C174.171 115.846 174.297 115.724 174.383 115.574C174.469 115.424 174.51 115.253 174.502 115.081C174.494 114.908 174.437 114.742 174.338 114.6C174.239 114.459 174.102 114.349 173.942 114.283Z" fill="#37474F"/>
<path d="M12.1285 116.427V155.254C12.1196 155.425 12.0703 155.592 11.9848 155.74C11.8992 155.889 11.7798 156.016 11.6362 156.11L10.3107 156.867C10.1597 156.945 9.99216 156.986 9.82211 156.986C9.65205 156.986 9.48448 156.945 9.33355 156.867L8.00801 156.11C7.86441 156.016 7.74499 155.889 7.65944 155.74C7.5739 155.592 7.52464 155.425 7.51568 155.254V116.427C7.51466 116.352 7.52865 116.278 7.55684 116.208C7.58503 116.139 7.62684 116.076 7.67979 116.023C7.73275 115.97 7.79578 115.928 7.86517 115.9C7.93455 115.872 8.00888 115.858 8.08376 115.859H11.5604C11.6353 115.858 11.7097 115.872 11.779 115.9C11.8484 115.928 11.9115 115.97 11.9644 116.023C12.0174 116.076 12.0592 116.139 12.0874 116.208C12.1156 116.278 12.1296 116.352 12.1285 116.427Z" fill="#263238"/>
<path d="M8.08376 115.859H9.2578C9.40847 115.859 9.55297 115.919 9.6595 116.025C9.76604 116.132 9.82589 116.276 9.82589 116.427V156.572C9.82589 156.89 9.60623 157.018 9.34112 156.859L8.01559 156.102C7.87199 156.008 7.75256 155.882 7.66702 155.733C7.58147 155.584 7.53221 155.417 7.52324 155.246V116.427C7.52224 116.352 7.536 116.279 7.56372 116.21C7.59144 116.141 7.63256 116.078 7.68471 116.025C7.73686 115.973 7.79899 115.931 7.8675 115.902C7.936 115.873 8.00951 115.859 8.08376 115.859Z" fill="#455A64"/>
<path d="M34.413 129.243V168.07C34.404 168.241 34.3547 168.408 34.2692 168.556C34.1836 168.705 34.0642 168.832 33.9206 168.925L32.5951 169.683C32.4418 169.758 32.2734 169.797 32.1027 169.797C31.9321 169.797 31.7637 169.758 31.6104 169.683L30.2924 168.925C30.1488 168.832 30.0294 168.705 29.9439 168.556C29.8583 168.408 29.8091 168.241 29.8001 168.07V129.243C29.7991 129.168 29.8131 129.093 29.8413 129.024C29.8695 128.955 29.9113 128.892 29.9642 128.839C30.0172 128.786 30.0802 128.744 30.1496 128.716C30.219 128.688 30.2933 128.674 30.3682 128.675H33.8449C33.9955 128.675 34.14 128.734 34.2466 128.841C34.3531 128.948 34.413 129.092 34.413 129.243Z" fill="#263238"/>
<path d="M30.3682 128.675H31.5347C31.6095 128.674 31.6839 128.688 31.7533 128.716C31.8226 128.744 31.8857 128.786 31.9386 128.839C31.9916 128.892 32.0334 128.955 32.0616 129.024C32.0898 129.093 32.1038 129.168 32.1027 129.243V169.387C32.1027 169.706 31.8831 169.827 31.6104 169.675L30.2924 168.918C30.1488 168.824 30.0294 168.698 29.9439 168.549C29.8583 168.4 29.8091 168.233 29.8001 168.062V129.243C29.7991 129.168 29.8131 129.093 29.8413 129.024C29.8695 128.955 29.9113 128.892 29.9642 128.839C30.0172 128.786 30.0802 128.744 30.1496 128.716C30.219 128.688 30.2933 128.674 30.3682 128.675Z" fill="#455A64"/>
<path d="M32.9585 100.732C32.9246 101.004 32.9445 101.279 33.0172 101.543C33.0898 101.807 33.2137 102.054 33.3818 102.27C33.5499 102.486 33.759 102.667 33.997 102.802C34.235 102.937 34.4973 103.024 34.7688 103.058H35.0264C35.5344 103.058 36.0249 102.872 36.4057 102.536C36.7866 102.2 37.0314 101.736 37.0942 101.232C38.291 91.6429 36.5867 70.1769 32.4813 58.1183C32.0572 56.8761 30.8604 56.6034 29.7242 57.2624C28.8608 57.7623 28.2093 58.5197 28.5653 59.4665C32.4738 70.8283 34.0871 91.499 32.9585 100.732Z" fill="white"/>
<path d="M8.78084 106.216C8.57086 106.219 8.36327 106.171 8.17557 106.077C7.98787 105.983 7.82556 105.845 7.70231 105.675C7.57906 105.505 7.49848 105.308 7.46735 105.1C7.43623 104.892 7.45547 104.68 7.52347 104.482C10.5533 95.1422 25.7022 86.833 35.443 86.833C35.7946 86.833 36.1317 86.9727 36.3803 87.2212C36.6289 87.4698 36.7686 87.807 36.7686 88.1585C36.7686 88.5101 36.6289 88.8472 36.3803 89.0958C36.1317 89.3444 35.7946 89.4841 35.443 89.4841C26.6263 89.4841 12.7196 97.157 10.0382 105.307C9.95271 105.573 9.78465 105.804 9.5585 105.968C9.33234 106.131 9.05989 106.218 8.78084 106.216Z" fill="#37474F"/>
<path d="M7.3568 94.1424C7.21525 94.1413 7.07472 94.1183 6.94021 94.0742C6.60689 93.9635 6.33112 93.7251 6.17348 93.4112C6.01584 93.0974 5.98922 92.7338 6.09944 92.4003C9.2883 82.6974 24.8311 74.8426 34.5492 75.85C34.8912 75.8953 35.2021 76.0722 35.4158 76.343C35.6295 76.6138 35.7292 76.9573 35.6937 77.3005C35.6582 77.6437 35.4903 77.9595 35.2257 78.1808C34.9611 78.4022 34.6206 78.5116 34.2765 78.486C25.6795 77.6073 11.4167 84.7273 8.61417 93.2335C8.52664 93.4979 8.35806 93.728 8.13236 93.8911C7.90666 94.0543 7.6353 94.1422 7.3568 94.1424Z" fill="#37474F"/>
<path d="M4.17519 84.8032C3.95506 84.8013 3.73882 84.745 3.54577 84.6392C3.35272 84.5334 3.18887 84.3815 3.06885 84.197C2.94883 84.0124 2.87637 83.8011 2.85795 83.5817C2.83953 83.3623 2.87571 83.1418 2.96327 82.9399C7.50796 72.5401 23.778 64.0036 32.5719 65.2156C32.9205 65.2638 33.2356 65.4485 33.4479 65.729C33.6603 66.0096 33.7525 66.363 33.7043 66.7115C33.6561 67.0601 33.4714 67.3752 33.1909 67.5875C32.9103 67.7999 32.5569 67.8921 32.2084 67.8439C24.4294 66.7608 9.4849 74.714 5.3871 84.0079C5.28335 84.2432 5.11372 84.4435 4.89869 84.5846C4.68365 84.7258 4.43239 84.8016 4.17519 84.8032Z" fill="#37474F"/>
<path d="M1.03177 73.4111C0.590611 73.669 0.259646 74.08 0.101829 74.5661C-0.0559883 75.0521 -0.0296445 75.5792 0.175851 76.047C4.9705 87.2345 7.4928 100.899 7.4928 115.866V117.873L7.65186 118.04C7.73268 118.125 7.83044 118.191 7.93877 118.236C8.04709 118.28 8.16354 118.301 8.28055 118.297C8.58119 118.279 8.87615 118.207 9.15161 118.085C9.28977 118.03 9.43149 117.985 9.57578 117.949C10.1282 117.949 10.658 117.73 11.0487 117.339C11.4393 116.948 11.6588 116.419 11.6588 115.866C11.6588 100.346 9.01528 86.1135 3.99339 74.3958C3.87813 74.1258 3.7071 73.8832 3.49152 73.6839C3.27594 73.4847 3.02067 73.3332 2.74245 73.2395C2.46424 73.1459 2.16936 73.112 1.87716 73.1403C1.58495 73.1685 1.30202 73.2582 1.04692 73.4035L1.03177 73.4111Z" fill="#455A64"/>
<path d="M7.51587 117.389V117.896C7.53858 118.358 7.65741 118.81 7.86479 119.224C8.07216 119.637 8.36351 120.003 8.72021 120.297L30.8529 136.302C31.2292 136.543 31.6619 136.682 32.1083 136.705C32.5546 136.727 32.9992 136.633 33.3979 136.431L64.6123 118.404C64.9957 118.156 65.315 117.821 65.5441 117.426C65.7731 117.031 65.9055 116.587 65.9303 116.131V115.609C65.9053 115.162 65.7653 114.729 65.5237 114.352C65.2822 113.975 64.9474 113.667 64.5518 113.458L36.5262 100.52C36.095 100.349 35.6322 100.271 35.1686 100.292C34.705 100.313 34.2512 100.432 33.8372 100.642L8.82625 115.116C8.44385 115.365 8.12573 115.7 7.89796 116.095C7.67019 116.49 7.53925 116.933 7.51587 117.389Z" fill="#263238"/>
<path d="M8.82582 115.116L33.8671 100.642C34.281 100.432 34.7349 100.313 35.1985 100.292C35.6621 100.271 36.1248 100.349 36.556 100.52L64.5816 113.458C65.3391 113.814 65.3391 114.435 64.6422 114.851L33.4277 132.879C33.029 133.08 32.5845 133.175 32.1381 133.152C31.6918 133.13 31.259 132.991 30.8827 132.75L8.71978 116.76C8.56542 116.679 8.43785 116.555 8.3525 116.403C8.26716 116.251 8.22771 116.078 8.23893 115.904C8.25015 115.73 8.31157 115.563 8.41573 115.423C8.51989 115.283 8.66234 115.177 8.82582 115.116Z" fill="#37474F"/>
<path d="M80.102 158.064C85.0254 165.047 88.9944 166.751 90.3503 168.274C91.7061 169.796 90.7972 172.675 87.3205 173.243C83.8438 173.811 80.155 172.849 78.0039 170.561C75.8527 168.274 74.4211 165.32 72.2094 163.623C69.9976 161.927 68.8539 161.457 68.5812 159.533C68.3085 157.609 70.2097 151.958 70.2097 151.958L80.102 158.064Z" fill="white"/>
<path d="M77.9811 147.603C77.413 150.057 76.8146 152.201 78.3901 155.238C78.9055 156.213 79.4771 157.156 80.102 158.064C82.9727 162.207 85.3132 165.449 85.7298 166.017C86.1464 166.585 83.5332 168.289 80.6549 166.964C77.7766 165.638 75.4361 161.26 73.6258 158.632C72.8153 157.443 72.0276 156.359 71.3913 155.534C70.5505 154.42 70.1415 153.04 70.24 151.648L70.5278 147.702L77.9811 147.603Z" fill="#FFA8A7"/>
<path d="M61.9078 166.615C66.8312 173.599 70.8002 175.311 72.1636 176.833C73.5271 178.356 72.603 181.226 69.1339 181.794C65.6647 182.363 61.9684 181.408 59.8248 179.121C57.6812 176.833 56.2345 173.879 54.0228 172.182C51.811 170.486 50.6673 170.016 50.3946 168.092C50.1219 166.168 52.0307 160.518 52.0307 160.518L61.9078 166.615Z" fill="#37474F"/>
<path d="M59.7874 156.162C59.2193 158.616 58.6209 160.76 60.204 163.79C60.7104 164.767 61.2796 165.711 61.9082 166.615C64.779 170.766 67.1195 174.008 67.5361 174.576C67.9527 175.144 65.3395 176.848 62.4687 175.515C59.598 174.182 57.2423 169.819 55.432 167.183C54.6291 165.994 53.8338 164.911 53.2051 164.085C52.3573 162.972 51.9452 161.588 52.0462 160.192L52.3341 156.253L59.7874 156.162Z" fill="#FFA8A7"/>
<path d="M34.9199 52.8692C30.9222 52.8692 27.0883 51.2811 24.2615 48.4543C21.4347 45.6276 19.8467 41.7936 19.8467 37.796V37.6672C19.8467 34.1215 21.2552 30.7211 23.7624 28.2139C26.2695 25.7067 29.67 24.2982 33.2156 24.2982H36.6166C38.3729 24.2972 40.1121 24.6423 41.735 25.3137C43.3579 25.9851 44.8325 26.9697 46.0748 28.2112C47.317 29.4527 48.3024 30.9269 48.9748 32.5494C49.6471 34.1718 49.9931 35.9109 49.9931 37.6672V37.796C49.9931 39.7754 49.6033 41.7355 48.8458 43.5642C48.0882 45.393 46.978 47.0547 45.5783 48.4543C44.1786 49.854 42.5169 50.9643 40.6882 51.7218C38.8594 52.4793 36.8993 52.8692 34.9199 52.8692Z" fill="#37474F"/>
<path d="M49.9404 88.9009C48.9482 88.098 47.8877 86.6816 46.8652 83.7275C46.1607 81.69 39.6467 63.3673 38.609 58.9438C38.609 58.9438 37.6849 57.6713 40.1239 56.0504C43.3733 55.6792 46.1835 55.6944 48.4558 61.7464C50.7282 67.7984 55.3183 82.1217 55.3183 82.1217" fill="#FFA8A7"/>
<path d="M17.6961 100.725C16.0448 103.716 14.6663 109.412 16.2418 113.972C17.128 116.495 28.9669 129.523 37.3064 128.432C51.6979 126.561 65.029 107.451 65.029 107.451L45.9565 96.5662L17.6961 100.725Z" fill="white"/>
<g opacity="0.1">
<path d="M17.6961 100.725C16.0448 103.716 14.6663 109.412 16.2418 113.972C17.128 116.495 28.9669 129.523 37.3064 128.432C51.6979 126.561 65.029 107.451 65.029 107.451L45.9565 96.5662L17.6961 100.725Z" fill="black"/>
</g>
<path d="M39.2151 56.1035C41.4117 55.9292 44.0174 55.9141 46.4866 60.4209C48.4181 63.9279 49.4634 65.3822 49.3877 70.1693C49.3347 73.6232 47.2138 77.7816 46.7366 80.5388C46.2594 83.2959 46.017 95.4832 45.9792 96.5664C44.1451 98.6346 41.9012 100.299 39.3899 101.454C36.8786 102.61 34.1546 103.23 31.3907 103.277C21.8241 103.535 17.7188 100.725 17.7188 100.725L25.0206 87.6133L23.1118 60.9587L30.2545 56.6867L39.2151 56.1035Z" fill="white"/>
<g opacity="0.5">
<path d="M39.2151 56.1035C41.4117 55.9292 44.0174 55.9141 46.4866 60.4209C48.4181 63.9279 49.4634 65.3822 49.3877 70.1693C49.3347 73.6232 47.2138 77.7816 46.7366 80.5388C46.2594 83.2959 46.017 95.4832 45.9792 96.5664C44.1451 98.6346 41.9012 100.299 39.3899 101.454C36.8786 102.61 34.1546 103.23 31.3907 103.277C21.8241 103.535 17.7188 100.725 17.7188 100.725L25.0206 87.6133L23.1118 60.9587L30.2545 56.6867L39.2151 56.1035Z" fill="white"/>
</g>
<path d="M43.1616 30.3879C44.7522 31.3348 48.6001 35.3341 48.4107 43.7342C48.2441 50.8466 45.9414 52.6115 44.7825 53.1114C43.6236 53.6113 41.3892 53.3159 39.2153 52.9523V57.2243C39.2153 57.2243 42.2451 60.7086 42.0254 62.6628C41.8058 64.617 37.6928 65.0867 34.8903 63.1703C33.0672 61.8614 31.503 60.2254 30.2774 58.3454V48.0289C30.2774 48.0289 28.8079 49.9831 26.4144 48.3925C24.0209 46.8019 23.9224 42.8555 25.3161 41.4391C26.7098 40.0227 29.7169 40.4771 30.2774 42.4314C30.2774 42.4314 33.2314 43.1888 37.8519 40.6438C42.4723 38.0988 42.8586 33.1526 43.1616 30.3879Z" fill="#FFA8A7"/>
<path d="M40.4648 41.9467C40.4661 42.1218 40.4159 42.2934 40.3204 42.4402C40.225 42.587 40.0885 42.7026 39.928 42.7725C39.7674 42.8424 39.5899 42.8637 39.4174 42.8336C39.2449 42.8035 39.085 42.7234 38.9577 42.6032C38.8303 42.483 38.741 42.3281 38.701 42.1576C38.6609 41.9871 38.6718 41.8086 38.7323 41.6443C38.7928 41.48 38.9002 41.337 39.0412 41.2333C39.1823 41.1295 39.3507 41.0694 39.5256 41.0605C39.6456 41.0564 39.7652 41.0762 39.8775 41.1186C39.9898 41.1611 40.0926 41.2254 40.1799 41.3078C40.2672 41.3902 40.3374 41.4891 40.3863 41.5987C40.4352 41.7084 40.4619 41.8266 40.4648 41.9467Z" fill="#37474F"/>
<path d="M38.8514 39.2049L36.9881 40.3562C36.8468 40.1036 36.8065 39.8068 36.8754 39.5257C36.9443 39.2445 37.1172 39 37.3592 38.8413C37.4807 38.7658 37.616 38.7153 37.7572 38.6927C37.8984 38.6701 38.0427 38.6759 38.1817 38.7098C38.3206 38.7436 38.4514 38.8049 38.5664 38.8899C38.6814 38.9749 38.7783 39.082 38.8514 39.2049Z" fill="#37474F"/>
<path d="M40.6998 47.976L42.8055 48.6501C42.7689 48.7905 42.7044 48.9221 42.6156 49.0369C42.5269 49.1517 42.4159 49.2473 42.2892 49.3181C42.1625 49.3888 42.0228 49.4332 41.8786 49.4486C41.7343 49.464 41.5884 49.45 41.4497 49.4075C41.1617 49.3152 40.9217 49.1133 40.7813 48.8454C40.641 48.5776 40.6117 48.2652 40.6998 47.976Z" fill="#F28F8F"/>
<path d="M47.3498 41.3028C47.3591 41.4218 47.3446 41.5415 47.3073 41.6549C47.2699 41.7683 47.2104 41.8732 47.1322 41.9634C47.0539 42.0536 46.9586 42.1273 46.8516 42.1804C46.7446 42.2334 46.6282 42.2647 46.5091 42.2723C46.2665 42.2785 46.0312 42.189 45.8541 42.0232C45.6769 41.8574 45.5721 41.6286 45.5622 41.3861C45.5568 41.2688 45.5745 41.1515 45.6143 41.0409C45.6542 40.9304 45.7154 40.8288 45.7946 40.7419C45.8737 40.6551 45.9692 40.5846 46.0755 40.5347C46.1819 40.4847 46.297 40.4561 46.4144 40.4507C46.5318 40.4452 46.6491 40.4629 46.7596 40.5028C46.8701 40.5426 46.9717 40.6039 47.0586 40.683C47.1454 40.7621 47.2159 40.8576 47.2659 40.9639C47.3158 41.0703 47.3444 41.1854 47.3498 41.3028Z" fill="#37474F"/>
<path d="M43.1614 40.7878L43.3053 46.1733L46.1381 45.2947L43.1614 40.7878Z" fill="#F28F8F"/>
<path d="M39.2148 52.9525C37.4045 52.748 33.7763 51.6497 32.981 50.4302C33.1354 51.2087 33.5658 51.9054 34.1929 52.392C35.3821 53.5206 39.2148 54.3386 39.2148 54.3386V52.9525Z" fill="#F28F8F"/>
<path d="M42.0476 29.7743C42.0476 29.7743 43.6231 35.2507 41.7371 40.3786C41.7371 40.3786 48.5995 40.8104 48.9783 35.6218C48.9783 35.6218 48.645 31.3498 45.6076 28.8048L42.0476 29.7743Z" fill="#37474F"/>
<path d="M26.1415 23.6014C28.5426 25.7374 26.5733 27.8053 24.2782 30.3806C21.9831 32.9559 20.2334 35.054 17.8323 32.9105C16.7033 31.7791 16.0501 30.2586 16.0067 28.6609C15.9633 27.0631 16.5331 25.5094 17.599 24.3184C18.6649 23.1275 20.1463 22.3896 21.739 22.2563C23.3317 22.123 24.9151 22.6043 26.1642 23.6014H26.1415Z" fill="#37474F"/>
<path d="M76.8149 176.197V227.976C76.828 228.204 76.8944 228.425 77.0089 228.623C77.1233 228.82 77.2827 228.988 77.4739 229.112L79.2388 230.127C79.4414 230.232 79.6661 230.286 79.894 230.286C80.1219 230.286 80.3465 230.232 80.5492 230.127L82.314 229.112C82.5053 228.988 82.6646 228.82 82.7791 228.623C82.8936 228.425 82.96 228.204 82.973 227.976V176.197C82.973 175.996 82.8932 175.803 82.7512 175.661C82.6091 175.519 82.4164 175.439 82.2156 175.439H77.5724C77.3715 175.439 77.1788 175.519 77.0368 175.661C76.8947 175.803 76.8149 175.996 76.8149 176.197Z" fill="#263238"/>
<path d="M82.1923 175.439H80.6774C80.4765 175.439 80.2838 175.519 80.1418 175.661C79.9997 175.803 79.9199 175.996 79.9199 176.197V229.748C79.9199 230.165 80.2153 230.339 80.5713 230.127L82.3362 229.112C82.5275 228.988 82.6868 228.82 82.8012 228.623C82.9157 228.425 82.9821 228.204 82.9952 227.976V176.197C82.9953 176.093 82.9744 175.991 82.9335 175.896C82.8926 175.801 82.8327 175.715 82.7575 175.644C82.6823 175.573 82.5933 175.519 82.4961 175.483C82.3989 175.448 82.2955 175.433 82.1923 175.439Z" fill="#455A64"/>
<path d="M156.816 130.008V181.787C156.829 182.014 156.895 182.234 157.008 182.432C157.121 182.629 157.279 182.797 157.468 182.923L159.232 183.946C159.438 184.045 159.663 184.096 159.891 184.096C160.12 184.096 160.345 184.045 160.55 183.946L162.315 182.923C162.504 182.797 162.661 182.629 162.775 182.432C162.888 182.234 162.953 182.014 162.967 181.787V130.008C162.967 129.807 162.887 129.614 162.745 129.472C162.603 129.33 162.41 129.25 162.209 129.25H157.574C157.373 129.25 157.18 129.33 157.038 129.472C156.896 129.614 156.816 129.807 156.816 130.008Z" fill="#263238"/>
<path d="M162.21 129.25H160.649C160.448 129.25 160.256 129.33 160.114 129.472C159.972 129.614 159.892 129.807 159.892 130.008V183.567C159.892 183.983 160.187 184.15 160.551 183.946L162.316 182.923C162.505 182.797 162.662 182.629 162.775 182.432C162.888 182.234 162.954 182.014 162.967 181.787V130.008C162.967 129.807 162.887 129.614 162.745 129.472C162.603 129.33 162.411 129.25 162.21 129.25Z" fill="#455A64"/>
<path d="M6.05396 135.34V187.119C6.06612 187.346 6.13139 187.568 6.24452 187.765C6.35765 187.962 6.51549 188.13 6.70536 188.255L8.47021 189.278C8.67571 189.377 8.90098 189.429 9.12919 189.429C9.35741 189.429 9.58268 189.377 9.78818 189.278L11.553 188.255C11.7437 188.131 11.9022 187.963 12.0155 187.766C12.1287 187.568 12.1935 187.347 12.2044 187.119V135.34C12.2044 135.139 12.1246 134.947 11.9826 134.804C11.8405 134.662 11.6479 134.583 11.447 134.583H6.8114C6.61052 134.583 6.41786 134.662 6.27581 134.804C6.13376 134.947 6.05396 135.139 6.05396 135.34Z" fill="#37474F"/>
<path d="M11.4467 134.583H9.88635C9.68547 134.583 9.49281 134.662 9.35076 134.804C9.20871 134.947 9.12891 135.139 9.12891 135.34V188.899C9.12891 189.316 9.42431 189.483 9.78789 189.278L11.5527 188.255C11.7434 188.131 11.9019 187.963 12.0152 187.766C12.1284 187.568 12.1932 187.347 12.2041 187.119V135.34C12.2041 135.139 12.1243 134.947 11.9823 134.804C11.8402 134.662 11.6476 134.583 11.4467 134.583Z" fill="#263238"/>
<path d="M78.587 180.007L4.2889 137.113C3.90651 136.864 3.58839 136.529 3.36061 136.134C3.13284 135.739 3.0019 135.296 2.97852 134.84V134.318C3.00369 133.863 3.1354 133.42 3.36301 133.025C3.59062 132.631 3.90777 132.295 4.2889 132.045L87.8128 83.826C88.2205 83.6209 88.6705 83.514 89.1269 83.514C89.5833 83.514 90.0334 83.6209 90.4411 83.826L164.754 126.72C165.137 126.969 165.455 127.304 165.683 127.699C165.91 128.094 166.041 128.537 166.065 128.993V129.515C166.041 129.971 165.91 130.414 165.682 130.809C165.454 131.203 165.136 131.539 164.754 131.788L81.2078 180.007C80.8027 180.216 80.3534 180.325 79.8974 180.325C79.4415 180.325 78.9921 180.216 78.587 180.007Z" fill="#37474F"/>
<path d="M79.9201 88.3933L4.2889 132.045C3.90777 132.295 3.59062 132.63 3.36301 133.025C3.1354 133.42 3.00369 133.862 2.97852 134.317V134.84C3.0019 135.295 3.13284 135.739 3.36061 136.134C3.58839 136.529 3.90651 136.864 4.2889 137.112L78.587 180.007C78.9886 180.225 79.4403 180.335 79.8974 180.325L79.9201 88.3933Z" fill="#263238"/>
<path d="M78.5872 176.454L4.28903 133.56C3.53159 133.144 3.53159 132.469 4.28903 132.045L87.8129 83.826C88.2206 83.6209 88.6707 83.514 89.1271 83.514C89.5835 83.514 90.0335 83.6209 90.4412 83.826L164.755 126.72C164.915 126.772 165.055 126.873 165.154 127.009C165.254 127.145 165.307 127.309 165.307 127.478C165.307 127.646 165.254 127.811 165.154 127.947C165.055 128.083 164.915 128.184 164.755 128.235L81.2079 176.454C80.8028 176.664 80.3535 176.773 79.8976 176.773C79.4416 176.773 78.9923 176.664 78.5872 176.454Z" fill="#455A64"/>
<path d="M44.0249 119.941V120.699C44.0269 121.08 44.1278 121.454 44.3176 121.785C44.5075 122.115 44.7798 122.391 45.108 122.585L65.8167 134.499C66.1465 134.688 66.5199 134.787 66.8998 134.787C67.2798 134.787 67.6532 134.688 67.983 134.499L105.969 112.533C106.3 112.344 106.575 112.071 106.767 111.741C106.958 111.411 107.059 111.036 107.06 110.655V110.125L66.915 133.31L44.0249 119.941Z" fill="#E6E6E6"/>
<path d="M107.06 110.163L84.5332 97.1649C84.3383 97.0496 84.1159 96.9888 83.8894 96.9888C83.6629 96.9888 83.4405 97.0496 83.2456 97.1649L44.1688 119.722C44.1247 119.747 44.0881 119.783 44.0626 119.827C44.0371 119.871 44.0237 119.921 44.0237 119.972C44.0237 120.022 44.0371 120.072 44.0626 120.116C44.0881 120.16 44.1247 120.196 44.1688 120.222L66.8923 133.348L107.06 110.163Z" fill="#FAFAFA"/>
<path d="M66.6954 131.439L54.5459 124.433L90.0702 103.921L102.28 110.897L66.6954 131.439Z" fill="#E6E6E6"/>
<path d="M60.7263 111.95L60.946 112.079L66.8995 115.518L77.4886 109.397L77.7083 109.276L71.5351 105.709L60.7263 111.95Z" fill="#E0E0E0"/>
<path d="M55.288 82.1218C55.288 82.1218 61.1431 86.9619 67.8919 92.3171C70.9217 94.7333 74.3151 97.1647 77.1025 97.4677C79.3143 97.7025 83.2454 97.8616 84.0862 98.6342C84.927 99.4068 87.3584 103.436 88.1461 104.739C88.9339 106.042 88.4112 109.095 85.8738 109.284C83.3363 109.473 82.2607 107.663 81.2003 106.534C80.6184 105.905 79.9766 105.335 79.284 104.83C79.284 104.83 76.6405 104.974 75.1407 104.073C73.641 103.171 72.7851 102.656 72.7851 102.656C67.5284 99.7098 54.2352 92.3398 49.9556 88.8707" fill="#FFA8A7"/>
<path d="M60.9463 112.079L66.8998 115.518L77.489 109.397L71.5354 105.966L60.9463 112.079Z" fill="#E6E6E6"/>
<path d="M66.8999 133.348V134.795C67.2798 134.794 67.6531 134.695 67.9831 134.507L105.969 112.541C106.3 112.352 106.575 112.078 106.767 111.748C106.958 111.418 107.059 111.044 107.06 110.662V110.132L66.8999 133.348Z" fill="#E0E0E0"/>
<path d="M67.5132 133.666C67.872 133.806 68.2577 133.864 68.6418 133.835C69.0259 133.806 69.3986 133.692 69.7325 133.5L107.552 111.662C107.88 111.474 108.162 111.215 108.378 110.905C108.594 110.595 108.739 110.24 108.802 109.867L112.945 85.1743C113.007 84.7627 112.971 84.3421 112.839 83.9471C112.708 83.5522 112.484 83.194 112.188 82.902L72.8835 105.625C72.6417 105.767 72.4337 105.96 72.2741 106.19C72.1145 106.42 72.0071 106.682 71.9594 106.959L67.5132 133.666Z" fill="#EBEBEB"/>
<path d="M66.8999 133.348L67.1574 133.5C67.2731 133.561 67.392 133.617 67.5134 133.666L71.99 106.974C72.0376 106.698 72.145 106.435 72.3046 106.205C72.4643 105.975 72.6722 105.782 72.914 105.641L112.218 82.9172C112.059 82.761 111.881 82.626 111.688 82.5157L72.3005 105.239C72.0587 105.381 71.8507 105.573 71.6911 105.804C71.5315 106.034 71.4241 106.296 71.3764 106.572L66.8999 133.348Z" fill="#F5F5F5"/>
<path d="M88.813 110.875C89.0933 109.223 90.7975 107.027 92.6003 105.974C94.403 104.921 95.6906 105.406 95.4104 107.057C95.1301 108.708 93.4259 110.905 91.6231 111.958C89.8204 113.011 88.5403 112.533 88.813 110.875Z" fill="#E0E0E0"/>
<path d="M42.9717 134.583L39.8965 136.355L42.9717 138.135L46.047 136.355L42.9717 134.583Z" fill="white"/>
<path d="M28.4139 139.544L39.412 133.196C39.6165 133.098 39.8404 133.047 40.0672 133.047C40.294 133.047 40.5179 133.098 40.7224 133.196L48.6377 137.741C48.829 137.866 48.9883 138.033 49.1028 138.231C49.2173 138.428 49.2837 138.65 49.2967 138.877V139.135C49.2855 139.363 49.2199 139.585 49.1052 139.783C48.9906 139.981 48.8303 140.148 48.6377 140.271L37.6472 146.626C37.4417 146.725 37.2164 146.777 36.9882 146.777C36.76 146.777 36.5347 146.725 36.3292 146.626L28.4139 142.081C28.2226 141.957 28.0633 141.789 27.9488 141.592C27.8343 141.395 27.7679 141.173 27.7549 140.945V140.68C27.7679 140.452 27.8343 140.231 27.9488 140.033C28.0633 139.836 28.2226 139.668 28.4139 139.544Z" fill="white"/>
<path d="M36.3064 144.846L28.4138 140.301C28.0502 140.097 28.0502 139.756 28.4138 139.544L39.412 133.196C39.6164 133.098 39.8403 133.047 40.0671 133.047C40.2939 133.047 40.5178 133.098 40.7223 133.196L48.6377 137.741C48.7161 137.769 48.784 137.82 48.8321 137.888C48.8802 137.956 48.906 138.037 48.906 138.12C48.906 138.203 48.8802 138.284 48.8321 138.352C48.784 138.42 48.7161 138.471 48.6377 138.499L37.6244 144.846C37.4204 144.95 37.1945 145.005 36.9654 145.005C36.7362 145.005 36.5104 144.95 36.3064 144.846Z" fill="white"/>
<g opacity="0.3">
<path d="M36.3064 144.846L28.4138 140.301C28.0502 140.097 28.0502 139.756 28.4138 139.544L39.412 133.196C39.6164 133.098 39.8403 133.047 40.0671 133.047C40.2939 133.047 40.5178 133.098 40.7223 133.196L48.6377 137.741C48.7161 137.769 48.784 137.82 48.8321 137.888C48.8802 137.956 48.906 138.037 48.906 138.12C48.906 138.203 48.8802 138.284 48.8321 138.352C48.784 138.42 48.7161 138.471 48.6377 138.499L37.6244 144.846C37.4204 144.95 37.1945 145.005 36.9654 145.005C36.7362 145.005 36.5104 144.95 36.3064 144.846Z" fill="white"/>
</g>
<path d="M39.2453 134.461C38.8059 134.719 38.8059 135.128 39.2453 135.378C39.4912 135.505 39.7639 135.571 40.0406 135.571C40.3173 135.571 40.59 135.505 40.8359 135.378C41.2752 135.128 41.2752 134.719 40.8359 134.461C40.5889 134.338 40.3166 134.274 40.0406 134.274C39.7645 134.274 39.4922 134.338 39.2453 134.461Z" fill="white"/>
<path d="M36.1701 136.241C35.7307 136.491 35.7307 136.9 36.1701 137.158C36.417 137.281 36.6893 137.346 36.9654 137.346C37.2414 137.346 37.5137 137.281 37.7607 137.158C38.2 136.9 38.2 136.491 37.7607 136.241C37.5148 136.115 37.2421 136.048 36.9654 136.048C36.6887 136.048 36.416 136.115 36.1701 136.241Z" fill="white"/>
<g opacity="0.2">
<path d="M39.2453 134.461C38.8059 134.719 38.8059 135.128 39.2453 135.378C39.4912 135.505 39.7639 135.571 40.0406 135.571C40.3173 135.571 40.59 135.505 40.8359 135.378C41.2752 135.128 41.2752 134.719 40.8359 134.461C40.5889 134.338 40.3166 134.274 40.0406 134.274C39.7645 134.274 39.4922 134.338 39.2453 134.461Z" fill="black"/>
</g>
<g opacity="0.2">
<path d="M36.1701 136.241C35.7307 136.491 35.7307 136.9 36.1701 137.158C36.417 137.281 36.6893 137.346 36.9654 137.346C37.2414 137.346 37.5137 137.281 37.7607 137.158C38.2 136.9 38.2 136.491 37.7607 136.241C37.5148 136.115 37.2421 136.048 36.9654 136.048C36.6887 136.048 36.416 136.115 36.1701 136.241Z" fill="black"/>
</g>
<path d="M28.7773 143.24C28.7101 143.241 28.644 143.223 28.5855 143.19C28.5271 143.157 28.4783 143.109 28.444 143.051C28.3969 142.963 28.3856 142.861 28.4124 142.765C28.4393 142.669 28.5021 142.587 28.5879 142.536L29.7771 141.847C29.8648 141.797 29.9686 141.783 30.0662 141.808C30.1639 141.834 30.2477 141.896 30.2998 141.983C30.3251 142.026 30.3415 142.074 30.3479 142.123C30.3544 142.173 30.3508 142.223 30.3374 142.271C30.3239 142.319 30.3009 142.364 30.2698 142.403C30.2386 142.442 30.1998 142.474 30.1559 142.498L28.9667 143.187C28.9098 143.222 28.8442 143.241 28.7773 143.24Z" fill="white"/>
<path d="M28.7772 143.619C28.5763 143.619 28.3837 143.539 28.2416 143.397C28.0996 143.255 28.0198 143.063 28.0198 142.862V131.03C28.0198 130.829 28.0996 130.637 28.2416 130.495C28.3837 130.353 28.5763 130.273 28.7772 130.273C28.9781 130.273 29.1708 130.353 29.3128 130.495C29.4549 130.637 29.5347 130.829 29.5347 131.03V142.862C29.5347 143.063 29.4549 143.255 29.3128 143.397C29.1708 143.539 28.9781 143.619 28.7772 143.619Z" fill="white"/>
<g opacity="0.2">
<path d="M28.7773 143.24C28.7101 143.24 28.644 143.223 28.5855 143.19C28.5271 143.157 28.4783 143.109 28.444 143.051C28.3969 142.963 28.3856 142.86 28.4124 142.764C28.4393 142.668 28.5021 142.587 28.5879 142.536L29.7771 141.847C29.8648 141.796 29.9686 141.783 30.0662 141.808C30.1639 141.834 30.2477 141.896 30.2998 141.983C30.3251 142.026 30.3415 142.074 30.3479 142.123C30.3544 142.173 30.3508 142.223 30.3374 142.271C30.3239 142.319 30.3009 142.364 30.2698 142.403C30.2386 142.442 30.1998 142.474 30.1559 142.498L28.9667 143.187C28.9098 143.222 28.8442 143.241 28.7773 143.24Z" fill="black"/>
<path d="M28.7772 143.619C28.5763 143.619 28.3837 143.539 28.2416 143.397C28.0996 143.255 28.0198 143.063 28.0198 142.862V131.03C28.0198 130.829 28.0996 130.637 28.2416 130.495C28.3837 130.353 28.5763 130.273 28.7772 130.273C28.9781 130.273 29.1708 130.353 29.3128 130.495C29.4549 130.637 29.5347 130.829 29.5347 131.03V142.862C29.5347 143.063 29.4549 143.255 29.3128 143.397C29.1708 143.539 28.9781 143.619 28.7772 143.619Z" fill="black"/>
</g>
<path d="M49.2741 141.9C49.0087 141.901 48.7475 141.834 48.5166 141.703L46.7442 140.68C46.7009 140.656 46.6629 140.623 46.6324 140.584C46.602 140.544 46.5798 140.499 46.567 140.451C46.5543 140.403 46.5514 140.353 46.5584 140.304C46.5654 140.255 46.5822 140.208 46.6079 140.165C46.6586 140.079 46.7405 140.016 46.8365 139.99C46.9324 139.963 47.0351 139.974 47.1229 140.021L48.8953 141.044C49.0019 141.107 49.1236 141.14 49.2476 141.14C49.3715 141.14 49.4932 141.107 49.5998 141.044L64.2791 132.644C64.3224 132.619 64.3701 132.603 64.4196 132.596C64.4691 132.59 64.5194 132.593 64.5676 132.606C64.6158 132.619 64.6609 132.642 64.7004 132.672C64.74 132.702 64.7731 132.74 64.798 132.784C64.8228 132.827 64.839 132.875 64.8454 132.924C64.8518 132.974 64.8484 133.024 64.8354 133.072C64.8224 133.12 64.8 133.165 64.7695 133.205C64.7391 133.245 64.7011 133.278 64.6579 133.303L50.0012 141.703C49.7803 141.831 49.5295 141.899 49.2741 141.9Z" fill="#F0F0F0"/>
<path d="M37.821 129.03C37.8225 129.444 37.7012 129.849 37.4724 130.194C37.2436 130.539 36.9176 130.808 36.5357 130.967C36.1539 131.127 35.7333 131.169 35.3273 131.089C34.9212 131.01 34.548 130.811 34.2549 130.519C33.9618 130.227 33.7619 129.854 33.6806 129.449C33.5993 129.043 33.6403 128.622 33.7983 128.24C33.9563 127.857 34.2243 127.53 34.5682 127.3C34.9122 127.07 35.3166 126.948 35.7304 126.948C36.2836 126.948 36.8142 127.167 37.206 127.557C37.5979 127.948 37.819 128.477 37.821 129.03Z" fill="white"/>
<path d="M35.7305 123.531C34.7349 123.532 33.7581 123.803 32.9043 124.315C32.0506 124.827 31.3519 125.562 30.8829 126.44C30.7923 126.61 30.7647 126.807 30.8049 126.995C30.845 127.184 30.9505 127.352 31.1025 127.47C31.1952 127.543 31.3026 127.594 31.4173 127.621C31.5319 127.648 31.6511 127.65 31.7665 127.626C31.8818 127.602 31.9906 127.554 32.0852 127.484C32.1799 127.413 32.2581 127.324 32.3144 127.22C32.6403 126.598 33.1302 126.077 33.731 125.713C34.3319 125.35 35.0207 125.158 35.723 125.158C36.4252 125.158 37.1141 125.35 37.7149 125.713C38.3157 126.077 38.8056 126.598 39.1315 127.22C39.1877 127.325 39.2662 127.416 39.3614 127.487C39.4567 127.558 39.5664 127.607 39.6827 127.631C39.7991 127.654 39.9192 127.652 40.0347 127.625C40.1502 127.597 40.2581 127.544 40.351 127.47C40.5043 127.353 40.6107 127.184 40.651 126.996C40.6912 126.807 40.6628 126.61 40.5706 126.44C40.1029 125.562 39.4055 124.828 38.5531 124.316C37.7006 123.804 36.7251 123.532 35.7305 123.531Z" fill="white"/>
<path d="M35.7311 120.199C34.2471 120.199 32.7872 120.574 31.4868 121.289C30.1865 122.004 29.0878 123.036 28.2929 124.289C28.1791 124.46 28.1331 124.667 28.1639 124.87C28.1947 125.073 28.3001 125.258 28.4595 125.387C28.5499 125.458 28.6541 125.508 28.7653 125.536C28.8765 125.564 28.9923 125.567 29.1051 125.547C29.2179 125.527 29.3253 125.484 29.4203 125.42C29.5152 125.356 29.5956 125.272 29.6563 125.175C30.306 124.157 31.2017 123.319 32.2608 122.739C33.3199 122.158 34.5082 121.854 35.7159 121.854C36.9236 121.854 38.1119 122.158 39.171 122.739C40.2301 123.319 41.1258 124.157 41.7755 125.175C41.8354 125.272 41.9151 125.355 42.0094 125.419C42.1037 125.484 42.2104 125.527 42.3227 125.547C42.4349 125.567 42.5501 125.563 42.6607 125.536C42.7714 125.508 42.8749 125.458 42.9647 125.387C43.1253 125.259 43.2322 125.075 43.2644 124.872C43.2966 124.669 43.2519 124.461 43.1389 124.289C42.3467 123.04 41.2529 122.011 39.9583 121.296C38.6636 120.581 37.2099 120.204 35.7311 120.199Z" fill="white"/>
<path d="M49.1301 115.98C43.8734 113.033 32.7768 105.118 28.4896 101.672C27.505 100.876 26.2173 100.399 25.5432 97.3087C25.0887 95.203 19.7714 77.3348 18.8094 70.9192C17.8702 64.6475 20.7182 62.5872 23.1345 60.989C26.596 63.7234 26.7248 67.1092 28.2851 72.8431C30.0045 79.1375 33.8448 94.9 33.8448 94.9C33.8448 94.9 38.897 99.9143 44.646 105.504C47.4334 108.224 50.7056 110.466 53.4627 110.761C55.6745 111.003 59.6056 111.155 60.4464 111.935C61.2872 112.715 63.7186 116.73 64.5063 117.995C65.2941 119.26 64.7714 122.358 62.234 122.539C59.6965 122.721 58.6209 120.911 57.5605 119.79C56.9798 119.157 56.3379 118.584 55.6442 118.078C55.6442 118.078 53.0007 118.229 51.5009 117.32C50.0012 116.412 49.1301 115.98 49.1301 115.98Z" fill="#FFA8A7"/>
<path d="M88.4946 82.0613C85.8831 81.2283 83.0771 81.2283 80.4656 82.0613C78.2917 82.8945 78.2917 84.2352 80.4656 85.0911C83.0771 85.9241 85.8831 85.9241 88.4946 85.0911C90.7518 84.2503 90.7518 82.8945 88.4946 82.0613Z" fill="#E0E0E0"/>
<path d="M90.3652 78.4102H78.655L79.5412 92.2109C79.5943 92.7108 80.0639 93.2031 80.9577 93.5894C83.2293 94.4078 85.7152 94.4078 87.9868 93.5894C88.9109 93.2031 89.3957 92.7108 89.4487 92.2109L90.3652 78.4102Z" fill="white"/>
<path d="M78.655 78.4253L78.8368 81.2279C79.1434 81.4357 79.4709 81.6109 79.8139 81.7505C82.8354 82.8034 86.1242 82.8034 89.1457 81.7505L89.4562 81.6066C89.7176 81.4873 89.9706 81.3507 90.2137 81.1976L90.3879 78.4102L78.655 78.4253Z" fill="white"/>
<path opacity="0.1" d="M78.655 78.4253L78.8368 81.2279C79.1434 81.4357 79.4709 81.6109 79.8139 81.7505C82.8354 82.8034 86.1242 82.8034 89.1457 81.7505L89.4562 81.6066C89.7176 81.4873 89.9706 81.3507 90.2137 81.1976L90.3879 78.4102L78.655 78.4253Z" fill="black"/>
<path d="M91.1078 78.8193V76.6757H89.7671C89.5853 76.5848 89.3808 76.4939 89.1688 76.403C86.146 75.3578 82.8598 75.3578 79.837 76.403C79.6249 76.4939 79.4355 76.5848 79.2613 76.6757H77.9358V78.789C77.9358 79.4783 78.572 80.1676 79.837 80.6902C82.8598 81.7354 86.146 81.7354 89.1688 80.6902C90.4488 80.1903 91.1078 79.5086 91.1078 78.8193Z" fill="white"/>
<g opacity="0.3">
<path d="M91.1078 78.8193V76.6757H89.7671C89.5853 76.5848 89.3808 76.4939 89.1688 76.403C86.146 75.3578 82.8598 75.3578 79.837 76.403C79.6249 76.4939 79.4355 76.5848 79.2613 76.6757H77.9358V78.789C77.9358 79.4783 78.572 80.1676 79.837 80.6902C82.8598 81.7354 86.146 81.7354 89.1688 80.6902C90.4488 80.1903 91.1078 79.5086 91.1078 78.8193Z" fill="white"/>
</g>
<path d="M89.1457 74.8124C86.1242 73.7595 82.8354 73.7595 79.8139 74.8124C77.284 75.8577 77.284 77.5619 79.8139 78.5996C82.8354 79.6525 86.1242 79.6525 89.1457 78.5996C91.7589 77.5619 91.7589 75.8577 89.1457 74.8124Z" fill="white"/>
<path opacity="0.1" d="M89.1457 74.8124C86.1242 73.7595 82.8354 73.7595 79.8139 74.8124C77.284 75.8577 77.284 77.5619 79.8139 78.5996C82.8354 79.6525 86.1242 79.6525 89.1457 78.5996C91.7589 77.5619 91.7589 75.8577 89.1457 74.8124Z" fill="white"/>
<path d="M87.9949 75.0624C85.7111 74.3506 83.2647 74.3506 80.9809 75.0624C79.0721 75.782 79.0721 76.9409 80.9809 77.6605C83.2635 78.38 85.7122 78.38 87.9949 77.6605C89.9642 76.9409 89.9642 75.782 87.9949 75.0624Z" fill="white"/>
<path opacity="0.3" d="M87.9949 75.0624C85.7111 74.3506 83.2647 74.3506 80.9809 75.0624C79.0721 75.782 79.0721 76.9409 80.9809 77.6605C83.2635 78.38 85.7122 78.38 87.9949 77.6605C89.9642 76.9409 89.9642 75.782 87.9949 75.0624Z" fill="white"/>
<path d="M89.4262 76.1152L88.8959 74.1913H80.1247L79.5945 76.1152H89.4262Z" fill="white"/>
<path opacity="0.3" d="M89.4262 76.1152L88.8959 74.1913H80.1247L79.5945 76.1152H89.4262Z" fill="white"/>
<path d="M87.6083 73.2067C85.5765 72.5706 83.3988 72.5706 81.3669 73.2067C79.6778 73.8429 79.6778 74.8731 81.3669 75.5169C83.3988 76.153 85.5765 76.153 87.6083 75.5169C89.358 74.8731 89.358 73.8429 87.6083 73.2067Z" fill="white"/>
<path opacity="0.1" d="M88.3128 74.358C88.3128 74.358 88.2674 74.464 88.1235 74.5776C87.8918 74.7381 87.6361 74.8608 87.366 74.9412C86.4175 75.2504 85.4246 75.4014 84.4271 75.3881C83.4472 75.4066 82.4712 75.2581 81.5412 74.9488C81.2929 74.8631 81.0601 74.7378 80.8519 74.5776C80.708 74.464 80.6702 74.3807 80.6702 74.358C80.6702 74.3352 80.8217 74.0474 81.5412 73.7747C82.4712 73.4654 83.4472 73.3169 84.4271 73.3354C85.4242 73.3196 86.4171 73.4681 87.366 73.7747C88.131 74.0398 88.3128 74.3049 88.3128 74.358Z" fill="white"/>
<path opacity="0.1" d="M88.3128 74.358C88.3128 74.358 88.2674 74.464 88.1235 74.5776C87.8918 74.7381 87.6361 74.8608 87.366 74.9412C86.4175 75.2504 85.4246 75.4014 84.4271 75.3881C83.4472 75.4066 82.4712 75.2581 81.5412 74.9488C81.2929 74.8631 81.0601 74.7378 80.8519 74.5776C80.708 74.464 80.6702 74.3807 80.6702 74.358C80.6702 74.3352 80.8217 74.0474 81.5412 73.7747C82.4712 73.4654 83.4472 73.3169 84.4271 73.3354C85.4242 73.3196 86.4171 73.4681 87.366 73.7747C88.131 74.0398 88.3128 74.3049 88.3128 74.358Z" fill="black"/>
<path d="M88.1233 74.5776C87.8916 74.7381 87.636 74.8608 87.3659 74.9412C86.4174 75.2505 85.4245 75.4014 84.427 75.3881C83.447 75.4067 82.4711 75.2581 81.5411 74.9488C81.2928 74.8631 81.06 74.7378 80.8518 74.5776C81.0608 74.4206 81.2935 74.2979 81.5411 74.2141C82.4711 73.9048 83.447 73.7562 84.427 73.7747C85.4241 73.759 86.417 73.9074 87.3659 74.2141C87.636 74.2945 87.8916 74.4172 88.1233 74.5776Z" fill="white"/>
<path d="M86.366 74.6154C86.4665 74.549 86.5792 74.5034 86.6976 74.4813C86.816 74.4592 86.9376 74.461 87.0553 74.4867C87.1841 74.5624 87.0553 74.7366 86.828 74.8805C86.7274 74.9497 86.6136 74.9974 86.4937 75.0209C86.3739 75.0443 86.2505 75.043 86.1312 75.0169C85.9797 74.9411 86.1085 74.7669 86.366 74.6154Z" fill="white"/>
<path opacity="0.1" d="M86.366 74.6154C86.4665 74.549 86.5792 74.5034 86.6976 74.4813C86.816 74.4592 86.9376 74.461 87.0553 74.4867C87.1841 74.5624 87.0553 74.7366 86.828 74.8805C86.7274 74.9497 86.6136 74.9974 86.4937 75.0209C86.3739 75.0443 86.2505 75.043 86.1312 75.0169C85.9797 74.9411 86.1085 74.7669 86.366 74.6154Z" fill="black"/>
<path d="M79.1626 88.5675C79.1626 89.075 79.6777 89.5901 80.6775 89.9839C83.1418 90.766 85.7877 90.766 88.252 89.9839C89.3125 89.5901 89.8427 89.0826 89.8427 88.5675L90.1759 83.5684C90.1759 84.1061 89.6079 84.6515 88.4793 85.0833C85.8678 85.9163 83.0618 85.9163 80.4503 85.0833C79.3596 84.6667 78.8142 84.1213 78.8142 83.5684L79.1626 88.5675Z" fill="white"/>
<path opacity="0.4" d="M79.1626 88.5675C79.1626 89.075 79.6777 89.5901 80.6775 89.9839C83.1418 90.766 85.7877 90.766 88.252 89.9839C89.3125 89.5901 89.8427 89.0826 89.8427 88.5675L90.1759 83.5684C90.1759 84.1061 89.6079 84.6515 88.4793 85.0833C85.8678 85.9163 83.0618 85.9163 80.4503 85.0833C79.3596 84.6667 78.8142 84.1213 78.8142 83.5684L79.1626 88.5675Z" fill="white"/>
<path d="M83.7983 88.8631C83.6316 88.5901 83.4823 88.3067 83.3514 88.0148C83.0638 87.487 82.6 87.0769 82.0411 86.8559C82.0034 86.8447 81.9631 86.846 81.9262 86.8597C81.8893 86.8734 81.8579 86.8986 81.8366 86.9316C81.7281 87.2729 81.7151 87.6374 81.799 87.9856C81.8829 88.3337 82.0605 88.6523 82.3126 88.9067C82.5646 89.1611 82.8815 89.3416 83.2289 89.4287C83.5762 89.5159 83.9408 89.5063 84.2831 89.4009C84.2831 89.4009 84.321 89.3252 84.2831 89.31C84.0945 89.1933 83.93 89.0416 83.7983 88.8631Z" fill="white"/>
<path d="M82.3592 86.7045C82.661 86.8214 82.9384 86.9935 83.1772 87.212C83.4312 87.4372 83.6351 87.7133 83.7756 88.0224C83.9369 88.4159 84.198 88.7605 84.533 89.0223C84.5503 89.0352 84.5699 89.0445 84.5909 89.0496C84.6118 89.0547 84.6335 89.0556 84.6548 89.052C84.676 89.0485 84.6963 89.0407 84.7145 89.029C84.7326 89.0174 84.7482 89.0022 84.7603 88.9844C84.9417 88.6398 85.0008 88.2439 84.9279 87.8613C84.8549 87.4788 84.6543 87.1323 84.3588 86.8787C84.1135 86.6006 83.7872 86.4064 83.4258 86.3235C83.0643 86.2406 82.686 86.2732 82.344 86.4166C82.3173 86.4309 82.2952 86.4524 82.2803 86.4788C82.2655 86.5051 82.2584 86.5352 82.26 86.5654C82.2616 86.5956 82.2718 86.6247 82.2893 86.6494C82.3069 86.674 82.3311 86.6931 82.3592 86.7045Z" fill="white"/>
</svg>
