<?xml version="1.0" standalone="no"?>
<!DOCTYPE svg PUBLIC "-//W3C//DTD SVG 20010904//EN"
 "http://www.w3.org/TR/2001/REC-SVG-20010904/DTD/svg10.dtd">
<svg version="1.0" xmlns="http://www.w3.org/2000/svg"
 width="239.000000pt" height="211.000000pt" viewBox="0 0 239.000000 211.000000"
 preserveAspectRatio="xMidYMid meet">

<g transform="translate(0.000000,211.000000) scale(0.100000,-0.100000)"
fill="#12303e" stroke="none">
<path d="M1175 2086 c-159 -31 -289 -82 -410 -160 -273 -178 -435 -452 -467
-793 l-12 -121 -44 39 c-69 60 -134 64 -193 11 -35 -31 -49 -94 -30 -140 14
-33 327 -311 373 -330 66 -28 89 -14 271 166 93 92 175 179 183 194 33 63 5
141 -61 172 -56 27 -97 15 -165 -50 -31 -30 -60 -54 -63 -54 -10 0 -8 76 3
150 22 138 80 271 166 380 194 248 575 356 880 251 120 -41 186 -84 290 -186
81 -80 98 -103 142 -195 65 -134 82 -198 89 -335 4 -91 2 -125 -16 -200 -62
-257 -246 -466 -501 -568 -97 -38 -154 -49 -265 -48 -125 0 -192 17 -323 82
-115 57 -146 59 -202 13 -75 -64 -56 -162 45 -223 180 -109 440 -156 649 -117
156 30 314 98 436 189 425 316 553 829 324 1306 -58 121 -112 197 -210 292
-192 186 -410 277 -684 285 -88 2 -159 -1 -205 -10z"/>
<path d="M1251 1547 c-13 -6 -34 -25 -45 -40 -20 -27 -21 -40 -21 -282 0 -241
1 -255 21 -282 21 -29 363 -226 419 -241 66 -19 133 26 142 95 10 78 0 86
-309 257 l-38 21 0 193 c0 144 -4 201 -14 227 -24 56 -99 81 -155 52z"/>
</g>
</svg>
