<svg width="36" height="39" viewBox="0 0 36 39" fill="none" xmlns="http://www.w3.org/2000/svg">
<path d="M32.0905 31.5977H3.45821C2.26833 31.5977 1.17719 30.9984 0.540282 29.9931C-0.0966266 28.9879 -0.175623 27.7467 0.330941 26.6703L2.96251 21.3756V15.1872C2.96251 7.05159 9.15484 0.38824 17.0604 0.0159693C21.1593 -0.169672 25.039 1.27102 27.9965 4.09218C30.9569 6.91532 32.5862 10.722 32.5862 14.811V21.3756L35.2029 26.6417C35.7233 27.7467 35.6453 28.9889 35.0084 29.9941C34.3715 30.9993 33.2803 31.5977 32.0905 31.5977ZM17.1305 1.49616H17.1404H17.1305ZM11.9385 33.5727C12.4105 36.3701 14.8436 38.5099 17.7743 38.5099C20.7051 38.5099 23.1372 36.3701 23.6102 33.5727H11.9385Z" fill="url(#paint0_linear_402_2834)"/>
<defs>
<linearGradient id="paint0_linear_402_2834" x1="0" y1="3.05176e-05" x2="43.8932" y2="17.1692" gradientUnits="userSpaceOnUse">
<stop stop-color="#062635"/>
<stop offset="1" stop-color="#213C49"/>
</linearGradient>
</defs>
</svg>
