<svg width="29" height="29" viewBox="0 0 29 29" fill="none" xmlns="http://www.w3.org/2000/svg">
<path d="M14.5 0C6.49238 0 0 6.49238 0 14.5C0 22.5076 6.49238 29 14.5 29C22.5076 29 29 22.5076 29 14.5C29 6.49238 22.5076 0 14.5 0ZM21.75 15.7083H15.7083V21.75C15.7083 22.4182 15.167 22.9583 14.5 22.9583C13.833 22.9583 13.2917 22.4182 13.2917 21.75V15.7083H7.25C6.583 15.7083 6.04167 15.1682 6.04167 14.5C6.04167 13.8318 6.583 13.2917 7.25 13.2917H13.2917V7.25C13.2917 6.58179 13.833 6.04167 14.5 6.04167C15.167 6.04167 15.7083 6.58179 15.7083 7.25V13.2917H21.75C22.417 13.2917 22.9583 13.8318 22.9583 14.5C22.9583 15.1682 22.417 15.7083 21.75 15.7083Z" fill="#BC63F2"/>
</svg>
