<svg width="61" height="60" viewBox="0 0 61 60" fill="none" xmlns="http://www.w3.org/2000/svg">
<path d="M30.5526 0.502472C14.2136 0.502472 0.966309 13.7497 0.966309 30.0887C0.966309 46.4278 14.2136 59.675 30.5526 59.675C46.8916 59.675 60.1388 46.4278 60.1388 30.0887C60.1388 13.7497 46.8916 0.502472 30.5526 0.502472ZM30.5526 48.5802C28.5111 48.5802 26.8543 46.9233 26.8543 44.8819C26.8543 42.8404 28.5111 41.1836 30.5526 41.1836C32.594 41.1836 34.2509 42.8404 34.2509 44.8819C34.2509 46.9233 32.594 48.5802 30.5526 48.5802ZM35.6513 31.3215C34.0191 32.8279 33.0181 33.8166 33.0181 35.0198H28.0871C28.0871 31.5952 30.4268 29.4354 32.3056 27.6972C34.2755 25.8776 35.4836 24.6621 35.4836 22.6922C35.4836 19.9727 33.272 17.7611 30.5526 17.7611C27.8331 17.7611 25.6215 19.9727 25.6215 22.6922H20.6905C20.6905 17.2532 25.1136 12.8301 30.5526 12.8301C35.9915 12.8301 40.4147 17.2532 40.4147 22.6922C40.4147 26.9205 37.7741 29.3589 35.6513 31.3215Z" fill="url(#paint0_linear_1127_897)"/>
<defs>
<linearGradient id="paint0_linear_1127_897" x1="0.966309" y1="0.502472" x2="72.3883" y2="30.7695" gradientUnits="userSpaceOnUse">
<stop stop-color="#062635"/>
<stop offset="1" stop-color="#213C49"/>
</linearGradient>
</defs>
</svg>
