<svg width="22" height="22" viewBox="0 0 22 22" fill="none" xmlns="http://www.w3.org/2000/svg">
<path d="M13.3742 0.634277C8.93133 0.634277 5.3134 4.2522 5.3134 8.69511C5.3134 10.6253 5.99038 12.3949 7.12709 13.7835L0.703613 20.207L1.86236 21.3657L8.28583 14.9422C9.67443 16.079 11.444 16.7559 13.3742 16.7559C17.8171 16.7559 21.4351 13.138 21.4351 8.69511C21.4351 4.2522 17.8171 0.634277 13.3742 0.634277ZM13.3742 2.24644C16.9449 2.24644 19.8229 5.12441 19.8229 8.69511C19.8229 12.2658 16.9449 15.1438 13.3742 15.1438C9.80353 15.1438 6.92557 12.2658 6.92557 8.69511C6.92557 5.12441 9.80353 2.24644 13.3742 2.24644Z" fill="#181818"/>
</svg>
