<svg width="264" height="261" viewBox="0 0 264 261" fill="none" xmlns="http://www.w3.org/2000/svg">
<path fill-rule="evenodd" clip-rule="evenodd" d="M260.863 124.517C260.675 120.424 257.009 117.46 252.933 117.88C248.858 118.3 245.92 121.946 246.078 126.04C246.984 149.504 240.725 172.755 228.043 192.656C214.03 214.648 192.995 231.26 168.353 239.794C143.712 248.329 116.909 248.286 92.2952 239.672C67.6811 231.058 46.7003 214.379 32.7574 192.342C18.8145 170.304 12.7279 144.202 15.4854 118.27C18.2428 92.3388 29.6824 68.1 47.9477 49.4875C66.2131 30.8751 90.2322 18.9812 116.107 15.7361C139.522 12.7996 163.214 17.1014 184.029 27.9689C187.661 29.8651 192.213 28.7711 194.338 25.2682C196.463 21.7653 195.355 17.1825 191.737 15.2599C168.05 2.6724 140.996 -2.33823 114.261 1.01467C85.0668 4.67601 57.9666 18.0956 37.3583 39.0956C16.7499 60.0956 3.84289 87.4436 0.731762 116.702C-2.37937 145.959 4.488 175.41 20.2194 200.274C35.9508 225.139 59.623 243.957 87.3944 253.676C115.166 263.394 145.407 263.443 173.209 253.814C201.012 244.185 224.744 225.443 240.556 200.629C255.035 177.906 262.094 151.313 260.863 124.517ZM261.193 41.9872C263.969 39.2114 263.969 34.711 261.193 31.9352C258.417 29.1594 253.917 29.1594 251.141 31.9352L127.088 155.988L68.1439 97.0431C65.3681 94.2673 60.8676 94.2673 58.0919 97.0431C55.3161 99.8189 55.3161 104.319 58.0919 107.095L122.062 171.066C124.838 173.841 129.339 173.841 132.114 171.066L261.193 41.9872Z" fill="#29CC6A"/>
</svg>
