<svg width="40" height="40" viewBox="0 0 40 40" fill="none" xmlns="http://www.w3.org/2000/svg">
<path d="M21.652 22.2355H17.7506V10.5313H21.652M21.652 30.0382H17.7506V26.1369H21.652M19.7013 0.777832C17.1396 0.777832 14.603 1.28239 12.2363 2.26271C9.8696 3.24303 7.71917 4.6799 5.90779 6.49128C2.24953 10.1495 0.194336 15.1112 0.194336 20.2848C0.194336 25.4583 2.24953 30.42 5.90779 34.0783C7.71917 35.8897 9.8696 37.3265 12.2363 38.3068C14.603 39.2872 17.1396 39.7917 19.7013 39.7917C24.8748 39.7917 29.8365 37.7365 33.4948 34.0783C37.153 30.42 39.2082 25.4583 39.2082 20.2848C39.2082 17.7231 38.7037 15.1865 37.7234 12.8198C36.743 10.4531 35.3062 8.30267 33.4948 6.49128C31.6834 4.6799 29.533 3.24303 27.1663 2.26271C24.7996 1.28239 22.263 0.777832 19.7013 0.777832Z" fill="#BC63F2"/>
</svg>
